<?xml version="1.0" encoding="UTF-8" standalone="no"?>
<svg
   xmlns:dc="http://purl.org/dc/elements/1.1/"
   xmlns:cc="http://creativecommons.org/ns#"
   xmlns:rdf="http://www.w3.org/1999/02/22-rdf-syntax-ns#"
   xmlns:svg="http://www.w3.org/2000/svg"
   xmlns="http://www.w3.org/2000/svg"
   xmlns:sodipodi="http://sodipodi.sourceforge.net/DTD/sodipodi-0.dtd"
   xmlns:inkscape="http://www.inkscape.org/namespaces/inkscape"
   id="e13BTPQkrXL1"
   viewBox="0 0 223 222.99999"
   shape-rendering="geometricPrecision"
   text-rendering="geometricPrecision"
   project-id="23b6550f900a49fd9b5a00a71686a8aa"
   export-id="9cca8eeb225a4877aa96d2f242e5f2e2"
   cached="false"
   width="223"
   height="223"
   version="1.1"
   sodipodi:docname="LLL Icon White.svg"
   inkscape:version="1.0.1 (3bc2e813f5, 2020-09-07)">
  <metadata
     id="metadata17">
    <rdf:RDF>
      <cc:Work
         rdf:about="">
        <dc:format>image/svg+xml</dc:format>
        <dc:type
           rdf:resource="http://purl.org/dc/dcmitype/StillImage" />
        <dc:title></dc:title>
      </cc:Work>
    </rdf:RDF>
  </metadata>
  <defs
     id="defs15" />
  <sodipodi:namedview
     pagecolor="#ffffff"
     bordercolor="#666666"
     borderopacity="1"
     objecttolerance="10"
     gridtolerance="10"
     guidetolerance="10"
     inkscape:pageopacity="0"
     inkscape:pageshadow="2"
     inkscape:window-width="1708"
     inkscape:window-height="871"
     id="namedview13"
     showgrid="false"
     inkscape:zoom="2.1866667"
     inkscape:cx="185.46411"
     inkscape:cy="138.68678"
     inkscape:window-x="2391"
     inkscape:window-y="-9"
     inkscape:window-maximized="1"
     inkscape:current-layer="e13BTPQkrXL1" />
  <path
     d="m 83.384058,0.64277612 c 8.32813,-2.05078002 19.347662,6.01952998 27.921882,6.11718998 9.03125,0.10156 20.80078,-8.04297 29.53906,-5.76952998 9.34375,2.42577998 16.16797,16.03124988 24.57813,20.76952988 7.76563,4.371092 21.90235,3.113282 28.15625,9.460942 6.22266,6.31641 4.63672,20.43359 9,28.15235 4.36719,7.73438 17.11328,13.71875 19.5,22.26953 2.57031,9.21094 -5.47656,21.828122 -5.53906,31.386712 -0.0625,9.25781 7.75,21.63281 4.96094,30.46094 -2.32812,7.37891 -13.96484,11.86328 -18,18.46485 -4.87109,7.97656 -3.40234,22.83985 -9.92188,29.53906 -6.375,6.55078 -20.64453,5.99609 -28.60547,10.48828 -8.54297,4.8125 -15.94922,18.26172 -25.51172,20.4336 -7.90234,1.79687 -18.21094,-5.80078 -26.3086,-6.11328 -10.11328,-0.39062 -23.699222,8.125 -33.347662,5.07422 -7.44531,-2.35156 -12.19531,-13.83984 -18.8086,-18 -8.32422,-5.23828 -23.91406,-4.41016 -30.69141,-11.53906 -5.69531,-5.98828 -4.58203,-18.90625 -8.38672,-26.24219 C 17.048108,156.21311 2.8371679,147.83811 0.64966783,137.49045 -1.0300221,129.5217 6.8254479,119.2131 6.8840479,111.06857 6.9426379,102.56077 -1.2565821,91.638888 0.76685783,83.377168 2.9582679,74.424038 15.844988,67.791228 20.497328,59.838108 c 4.94922,-8.46484 4.41406,-23.84766 11.53906,-30.57813 6.30469,-5.957032 19.97266,-4.48828 27.57813,-8.656252 8.16406,-4.47266 14.72656,-17.7343799 23.76953,-19.96093988 z M 61.930928,24.662308 c -7.26563,3.98047 -20.32422,2.57813 -26.34766,8.26953 -6.80859,6.43359 -6.29297,21.125 -11.02344,29.21094 -4.44141,7.59766 -16.7539101,13.9375 -18.8476601,22.48828 -1.93359,7.89453 5.8984401,18.328132 5.8398401,26.457022 -0.05469,7.78125 -7.5585901,17.62891 -5.9531301,25.24219 2.08984,9.88281 15.6679701,17.88672 20.3203101,26.85156 3.63281,7.00781 2.57031,19.34766 8.01172,25.07031 6.47656,6.80859 21.36719,6.01953 29.32422,11.02344 6.3125,3.97266 10.85156,14.94922 17.96875,17.19531 9.21484,2.91406 22.195312,-5.22266 31.855472,-4.84766 7.73438,0.29688 17.58594,7.55859 25.13281,5.83984 9.13672,-2.07422 16.21094,-14.92188 24.3711,-19.52344 7.60938,-4.28906 21.24219,-3.75781 27.33203,-10.01953 6.22656,-6.39844 4.82422,-20.59766 9.48047,-28.21875 3.85156,-6.30469 14.97266,-10.58984 17.19531,-17.63672 2.66016,-8.4375 -4.79688,-20.25781 -4.74219,-29.10156 0.0625,-9.13672 7.75,-21.187492 5.29297,-29.984372 -2.28125,-8.17188 -14.45703,-13.89063 -18.62891,-21.27735 -4.16797,-7.375 -2.65234,-20.86328 -8.59766,-26.89844 -5.97656,-6.0625 -19.48047,-4.85938 -26.89844,-9.03906 -8.03516,-4.523442 -14.55469,-17.5195319 -23.48047,-19.8398519 -8.34766,-2.17188 -19.59375,5.6093799 -28.21875,5.5117199 -8.19531,-0.09375 -18.722662,-7.8007799 -26.679692,-5.8437499 -8.63672,2.12891 -14.90625,14.7968799 -22.70703,19.0703119 z m 24.16797,-13.320302 c 7.52344,-1.8515599 17.480472,5.4375 25.226562,5.52734 8.15625,0.09375 18.79297,-7.2656199 26.6875,-5.21484 8.44141,2.19531 14.60547,14.488282 22.20703,18.765632 7.01563,3.95313 19.78516,2.81641 25.4375,8.55078 5.62109,5.70703 4.1875,18.46094 8.12891,25.43359 3.94922,6.98828 15.46094,12.39453 17.62109,20.12109 2.32031,8.32031 -4.94922,19.718742 -5.00391,28.355462 -0.0586,8.36719 7,19.54688 4.48047,27.52344 -2.10156,6.66406 -12.61719,10.71484 -16.26172,16.67969 -4.40234,7.20703 -3.07422,20.63281 -8.96484,26.6875 -5.76172,5.91797 -18.65234,5.41797 -25.84766,9.47656 -7.71484,4.35156 -14.40625,16.5 -23.04687,18.46094 -7.13672,1.625 -16.45312,-5.24219 -23.76953,-5.52344 -9.13281,-0.35156 -21.410162,7.34375 -30.128912,4.58594 -6.72656,-2.125 -11.01953,-12.50391 -16.99219,-16.26172 -7.51953,-4.73437 -21.60547,-3.98437 -27.73047,-10.42578 -5.14453,-5.41016 -4.13672,-17.08203 -7.57813,-23.71094 -4.39844,-8.47656 -17.23828,-16.04297 -19.21094,-25.39062 -1.5234401,-7.19922 5.57422,-16.51562 5.62891,-23.87109 0.05469,-7.68749 -7.3554701,-17.554682 -5.52734,-25.019522 1.98047,-8.08984 13.625,-14.08203 17.82812,-21.26953 4.47266,-7.64453 3.98438,-21.54297 10.42578,-27.625 5.69141,-5.37891 18.04297,-4.05469 24.91406,-7.82031 7.37891,-4.04297 13.30859,-16.023442 21.47656,-18.035162 z"
     stroke-width="5"
     id="path2"
     style="fill:#3498db;fill-opacity:1" />
  <g
     transform="translate(-70.859755,-71.465935)"
     id="g10">
    <g
       transform="translate(137.735,243.255)"
       id="g8">
      <g
         id="g6">
        <path
           d="m 103.26563,-45.125 c 0.88281,-1.320312 2.00781,-1.789062 3.375,-1.40625 1.375,0.386719 2.52343,1.132812 3.45312,2.234375 0.9375,1.09375 1.13281,2.1875 0.59375,3.28125 -4.39844,8.460937 -8.35547,15.382813 -11.875,20.765625 -3.511719,5.375 -6.804688,9.523438 -9.875,12.4375 -3.074219,2.90625 -6.070312,4.9375 -8.984375,6.09375 C 77.046875,-0.570312 74.003906,0 70.828125,0 65.660156,0 61.019531,-0.984375 56.90625,-2.953125 52.789062,-4.929688 49.140625,-7.457031 45.953125,-10.53125 42.765625,-13.613281 39.800781,-16.859375 37.0625,-20.265625 32.78125,-13.234375 28.082031,-7.769531 22.96875,-3.875 17.863281,0.019531 11.910156,1.96875 5.109375,1.96875 c -5.925781,0 -10.894531,-1.289062 -14.90625,-3.859375 -4.007813,-2.582031 -7,-5.90625 -8.96875,-9.96875 -1.976563,-4.0625 -2.96875,-8.398437 -2.96875,-13.015625 0,-4.601562 1.183594,-9.046875 3.546875,-13.328125 2.355469,-4.289063 5.867188,-7.804687 10.53125,-10.546875 4.667969,-2.75 10.457031,-4.125 17.375,-4.125 3.945312,0 7.59375,0.445312 10.9375,1.328125 3.351562,0.875 6.515625,1.96875 9.484375,3.28125 0.550781,-0.976563 1.128906,-2.046875 1.734375,-3.203125 0.601562,-1.15625 1.175781,-2.28125 1.71875,-3.375 -9.554688,-2.75 -17.074219,-7.25 -22.5625,-13.5 C 5.539062,-74.601562 2.796875,-82.070312 2.796875,-90.75 c 0,-9.113281 2.660156,-16.44141 7.984375,-21.98438 5.332031,-5.55078 12.332031,-8.32812 21,-8.32812 5.488281,0 9.878906,1.29297 13.171875,3.875 3.300781,2.58594 4.953125,5.90625 4.953125,9.96875 0,2.96094 -0.882812,4.4375 -2.640625,4.4375 -3.949219,0 -7.324219,1.35156 -10.125,4.046875 -2.804687,2.6875 -4.203125,6.449219 -4.203125,11.28125 0,3.398437 0.6875,6.414063 2.0625,9.046875 1.375,2.636719 3.210938,4.890625 5.515625,6.765625 4.613281,-11.3125 9.171875,-20.726563 13.671875,-28.25 4.5,-7.519535 9.328125,-13.175785 14.484375,-16.968755 5.164063,-3.78906 11.097656,-5.6875 17.796875,-5.6875 7.46875,0 13.367188,1.92188 17.70313,5.76563 4.34375,3.84375 6.51562,9.60937 6.51562,17.296875 0,5.710937 -1.15625,11.367187 -3.46875,16.96875 -2.30469,5.605469 -5.78906,10.683594 -10.453125,15.234375 -4.667969,4.554688 -10.515625,8.203125 -17.546875,10.953125 -7.023438,2.75 -15.257812,4.125 -24.703125,4.125 h -1.8125 c -1.980469,4.71875 -3.953125,9.164063 -5.921875,13.328125 3.613281,2.09375 7.394531,3.882812 11.34375,5.359375 3.957031,1.480469 8.351562,2.21875 13.1875,2.21875 3.738281,0 7.664062,-0.460937 11.78125,-1.390625 4.113281,-0.9375 7.953125,-2.421875 11.515625,-4.453125 3.570313,-2.03125 6.457035,-4.691406 8.656255,-7.984375 z M 78.5625,-94.046875 c -0.992188,0 -2.339844,0.496094 -4.046875,1.484375 -1.699219,0.992188 -3.78125,3.324219 -6.25,7 -2.46875,3.679688 -5.40625,9.46875 -8.8125,17.375 -0.21875,0.554688 -0.4375,1.15625 -0.65625,1.8125 5.382813,-0.332031 9.914063,-1.675781 13.59375,-4.03125 3.675781,-2.363281 6.5,-5.164062 8.46875,-8.40625 1.976563,-3.238281 2.96875,-6.226562 2.96875,-8.96875 0,-1.644531 -0.414063,-3.097656 -1.234375,-4.359375 -0.824219,-1.269531 -2.167969,-1.90625 -4.03125,-1.90625 z m -64.234375,60.9375 c 2.96875,0 5.929687,-1.644531 8.890625,-4.9375 -1.3125,-1.3125 -2.65625,-2.351563 -4.03125,-3.125 -1.375,-0.769531 -2.828125,-1.15625 -4.359375,-1.15625 -1.875,0 -3.308594,0.46875 -4.296875,1.40625 -0.980469,0.929687 -1.46875,1.996094 -1.46875,3.203125 0,1.210938 0.4375,2.28125 1.3125,3.21875 0.875,0.929688 2.191406,1.390625 3.953125,1.390625 z m 0,0"
           fill="#ffffff"
           id="path4" />
      </g>
    </g>
  </g>
</svg>
