<?xml version="1.0" encoding="UTF-8" standalone="no"?>
<svg
   xmlns:dc="http://purl.org/dc/elements/1.1/"
   xmlns:cc="http://creativecommons.org/ns#"
   xmlns:rdf="http://www.w3.org/1999/02/22-rdf-syntax-ns#"
   xmlns:svg="http://www.w3.org/2000/svg"
   xmlns="http://www.w3.org/2000/svg"
   xmlns:sodipodi="http://sodipodi.sourceforge.net/DTD/sodipodi-0.dtd"
   xmlns:inkscape="http://www.inkscape.org/namespaces/inkscape"
   id="ey7BoQghFAd1"
   viewBox="0 0 335 223.99999"
   shape-rendering="geometricPrecision"
   text-rendering="geometricPrecision"
   project-id="53c585a366564e6f84d65ca3d92f66d3"
   export-id="b1541299d84e4c8fbbfbf30ce459b46d"
   cached="false"
   width="335"
   height="224"
   version="1.1"
   sodipodi:docname="LLL_logo.svg"
   inkscape:version="1.0.1 (3bc2e813f5, 2020-09-07)">
  <metadata
     id="metadata9">
    <rdf:RDF>
      <cc:Work
         rdf:about="">
        <dc:format>image/svg+xml</dc:format>
        <dc:type
           rdf:resource="http://purl.org/dc/dcmitype/StillImage" />
        <dc:title></dc:title>
      </cc:Work>
    </rdf:RDF>
  </metadata>
  <defs
     id="defs7" />
  <sodipodi:namedview
     pagecolor="#ffffff"
     bordercolor="#666666"
     borderopacity="1"
     objecttolerance="10"
     gridtolerance="10"
     guidetolerance="10"
     inkscape:pageopacity="0"
     inkscape:pageshadow="2"
     inkscape:window-width="1920"
     inkscape:window-height="991"
     id="namedview5"
     showgrid="false"
     inkscape:zoom="2.1866667"
     inkscape:cx="187.49723"
     inkscape:cy="102.01399"
     inkscape:window-x="-9"
     inkscape:window-y="214"
     inkscape:window-maximized="1"
     inkscape:current-layer="ey7BoQghFAd1" />
  <path
     d="m 141.60703,1.1427732 c 8.32813,-2.05078007 19.34766,6.0195299 27.92188,6.1132799 9.03125,0.10547 20.80078,-8.03905997 29.53906,-5.7656199 9.34375,2.4257799 16.16797,16.0312498 24.57813,20.7695298 7.76563,4.37109 21.90235,3.11328 28.15625,9.46094 6.22266,6.316409 4.63672,20.433599 9,28.152349 0.85177,1.5085 2.02227,2.95043 3.37249,4.35782 4.42335,-1.73811 9.30222,-2.17169 13.10515,-0.63176 6.21818,-5.06057 13.56207,-2.65987 15.59,2.82233 15.32097,-16.28848 31.88573,-9.09567 33.73354,5.51026 4.6457,-0.18887 7.99063,4.33695 7.66061,8.33259 -1.62103,6.23022 -7.67805,16.96013 -12.90207,21.234658 -6.67428,6.23001 -19.77196,9.20337 -26.53452,2.84583 -2.16361,2.9753 -6.64015,6.80105 -9.59809,6.52276 -1.11205,6.27421 -3.74969,11.8912 -7.59227,15.98339 1.8582,6.04421 3.66119,12.1567 2.08703,17.13933 -2.32812,7.37891 -13.96484,11.86328 -18,18.46484 -4.87109,7.97656 -3.40234,22.83594 -9.92188,29.53906 -6.375,6.55078 -20.64453,5.99609 -28.60547,10.48438 -8.54297,4.81641 -15.94922,18.26563 -25.51172,20.4375 -7.90234,1.79688 -18.21094,-5.80078 -26.3086,-6.11328 -10.11328,-0.39453 -23.69922,8.125 -33.34766,5.07422 -7.44531,-2.35156 -12.19531,-13.83984 -18.8086,-18 -8.32422,-5.23828 -23.914053,-4.41016 -30.691403,-11.53906 -5.69531,-5.98828 -4.58203,-18.90625 -8.38672,-26.24219 -4.60675,-8.87362 -17.56713,-16.84585 -20.81058,-26.43778 -6.74642,4.67765 -17.4511,4.71138 -23.6944,-0.78471 -8.61954,11.71378 -21.35213,10.9793 -28.8054196,5.28263 -9.11321,-6.96538 -8.74274,-24.85173 5.8593696,-32.05991 -15.9622496,-26.161158 10.4567,-40.827558 24.067,-30.630718 8.27702,-9.07204 19.02136,-10.02202 25.82796,-4.22754 4.79548,-5.88851 12.70357,-11.03519 16.13419,-16.8998 4.94922,-8.46484 4.41406,-23.847659 11.53906,-30.578129 6.30469,-5.95703 19.972653,-4.48828 27.578123,-8.65625 8.16406,-4.47266 14.72656,-17.7343799 23.76953,-19.9609398 z M 120.1539,25.162303 c -7.26563,3.98047 -20.324213,2.57813 -26.347653,8.26953 -6.80859,6.429689 -6.29297,21.124999 -11.02344,29.210939 -3.68678,6.30676 -12.79717,11.74682 -16.98416,18.30423 1.36255,2.12957 2.37807,4.70383 2.93193,7.69812 0.02062,-0.75857 0.11155,-1.49906 0.28749,-2.21745 1.99349,-8.14303 13.71457,-14.17461 17.94533,-21.40936 4.50206,-7.69479 4.01057,-21.68459 10.49432,-27.80661 5.728813,-5.414269 18.161573,-4.081339 25.077843,-7.871719 7.42742,-4.06955 13.39609,-16.12878 21.61775,-18.15372 7.5729,-1.8637299 17.59539,5.47325 25.3924,5.56368 8.20987,0.09437 18.91651,-7.3133899 26.86295,-5.24913 8.4969,2.20974 14.70149,14.58353 22.35302,18.88899 7.06175,3.97911 19.91522,2.83492 25.60473,8.606989 5.65805,5.74455 4.21503,18.5823 8.18235,25.6008 0.92438,1.63573 2.26039,3.18535 3.79394,4.69825 1.05773,-1.08079 2.28597,-2.06333 3.62507,-2.92156 -1.29412,-1.34773 -2.41601,-2.72843 -3.23182,-4.17292 -4.16797,-7.375 -2.65234,-20.86328 -8.59766,-26.898439 -5.97656,-6.0625 -19.48047,-4.85938 -26.89844,-9.03906 -8.03516,-4.52344 -14.55469,-17.5195299 -23.48047,-19.8398499 -8.34766,-2.17188 -19.59375,5.6093799 -28.21875,5.5117199 -8.19531,-0.09375 -18.72266,-7.8007799 -26.67969,-5.8437499 -8.63672,2.12891 -14.90625,14.7968799 -22.70703,19.0703099 z M 84.142187,163.68184 c 3.63281,7.00781 2.57031,19.34766 8.01172,25.07031 6.47656,6.80859 21.367183,6.01953 29.324213,11.02344 6.3125,3.97266 10.85156,14.94922 17.96875,17.19531 9.21484,2.91406 22.19531,-5.22266 31.85547,-4.84766 7.73438,0.29688 17.58594,7.55859 25.13281,5.83984 9.13672,-2.07422 16.21094,-14.92188 24.3711,-19.52344 7.60938,-4.28906 21.24219,-3.76172 27.33203,-10.01953 6.22656,-6.39844 4.82422,-20.59766 9.48047,-28.21875 3.85156,-6.30469 14.97266,-10.58984 17.19531,-17.63672 1.168,-3.70468 0.38556,-8.06151 -0.85509,-12.5322 -1.32089,0.91294 -2.73662,1.67401 -4.23919,2.2616 0.66209,3.14097 0.87761,6.14833 0.039,8.80318 -2.11538,6.70787 -12.70013,10.78528 -16.36862,16.78934 -4.43129,7.25441 -3.09443,20.76845 -9.02378,26.86295 -5.7996,5.95687 -18.77497,5.45359 -26.01758,9.53886 -7.76556,4.38017 -14.50096,16.60847 -23.19839,18.5823 -7.18364,1.63568 -16.56129,-5.27665 -23.92579,-5.55975 -9.19285,-0.35781 -21.55091,7.39203 -30.32698,4.61609 -6.77078,-2.13897 -11.09197,-12.58611 -17.1039,-16.36862 -7.56897,-4.7655 -21.7475,-4.01057 -27.912763,-10.49432 -5.17835,-5.44572 -4.16391,-17.19433 -7.62794,-23.86681 -3.63054,-6.99669 -12.97476,-13.37734 -17.31551,-20.63578 -2.26065,6.8e-4 -4.54359,-0.60267 -6.61014,-1.94445 3.20633,9.07487 15.44599,16.64272 19.81477,25.06482 z M 144.73524,68.505942 c -3.62917,1.98956 -10.14831,1.28967 -13.15624,4.12853 -2.42127,2.28691 -2.9893,6.66617 -3.96681,10.45518 1.27585,0.25949 2.48987,0.67869 3.60842,1.24372 0.77137,-3.24708 1.39437,-6.74663 3.42312,-8.66194 2.78017,-2.62867 8.81547,-1.98174 12.17297,-3.82018 3.60726,-1.97765 6.50208,-7.8287 10.49422,-8.81547 v 1e-5 c 3.67687,-0.90489 8.54114,2.65734 12.32856,2.70237 3.98396,0.045 9.17988,-3.54994 13.041,-2.54678 4.12317,1.07276 7.13673,7.07531 10.85044,9.1676 1.4237,0.80285 3.33285,1.17608 5.27626,1.53887 1.49654,-1.45026 3.18995,-2.30999 4.88655,-2.62323 -2.94208,-0.68102 -6.25824,-0.96559 -8.48039,-2.2182 -4.0145,-2.25693 -7.27014,-8.74854 -11.72501,-9.90846 -4.17178,-1.08128 -9.78657,2.80347 -14.09204,2.75235 -4.09314,-0.0433 -9.35013,-3.89261 -13.32138,-2.91749 -4.31333,1.06555 -7.44314,7.3881 -11.33969,9.52313 z m -17.98465,69.170508 c 1.81655,3.50335 1.28574,9.66468 4.0027,12.51926 3.23205,3.40112 10.67126,3.00793 14.64251,5.5047 3.15341,1.98562 5.4182,7.46674 8.97266,8.58733 4.60036,1.45481 11.08411,-2.60687 15.90859,-2.42207 3.86116,0.14941 8.78,3.77465 12.55072,2.91749 4.56104,-1.0341 8.09584,-7.45101 12.16932,-9.74725 3.79824,-2.1429 10.60441,-1.87946 13.64773,-5.00535 3.11016,-3.19666 2.40634,-10.28593 4.73404,-14.09204 1.92271,-3.14554 7.4746,-5.28845 8.58733,-8.80752 0.75216,-2.38334 -0.11534,-5.30825 -1.0044,-8.19948 -1.37531,-0.28318 -2.72592,-0.83931 -4.00225,-1.72874 0.91952,3.08614 2.13866,6.33281 1.32676,8.90069 -1.02772,3.25513 -6.16633,5.23687 -7.94744,8.14807 -2.14962,3.52537 -1.50268,10.08477 -4.38112,13.041 -2.81293,2.89482 -9.11437,2.64915 -12.62746,4.63089 -3.77104,2.12914 -7.04255,8.06208 -11.26399,9.02429 -3.48852,0.79024 -8.03752,-2.56316 -11.61202,-2.70237 -4.46301,-0.17197 -10.46147,3.59088 -14.72385,2.24379 -3.28789,-1.04 -5.38428,-6.1131 -8.30366,-7.94744 -3.67277,-2.3134 -10.55564,-1.94899 -13.54872,-5.09357 -1.67006,-1.7571 -2.01388,-4.86392 -2.54984,-7.70127 -0.46451,-1.164 -0.84405,-2.43759 -1.12258,-3.82158 -0.0109,-0.0216 -0.022,-0.0432 -0.0331,-0.0646 -0.58998,-1.13725 -1.49053,-2.24088 -2.50673,-3.33806 -2.09129,0.10497 -4.53715,-0.42498 -6.55779,-1.46852 2.14046,2.20783 4.46425,4.35341 5.64258,6.62234 z m 22.40303,-61.731218 c -3.01495,1.65087 -8.4345,1.06994 -10.93103,3.43042 -1.85999,1.75599 -2.40413,4.99491 -3.11767,7.96144 0.96207,1.11132 1.72345,2.40479 2.22659,3.85667 5.39556,-10.1918 18.14607,-15.328 25.34785,-12.07984 5.35515,-4.22234 12.17167,-2.82596 14.25817,1.38621 3.42934,-5.22588 7.95456,-6.93826 11.81557,-5.98247 -2.36368,-2.35881 -4.59415,-5.62016 -7.39468,-6.3488 -3.46719,-0.90081 -8.13301,2.32739 -11.7105,2.28695 -3.40101,-0.0404 -7.76901,-3.23923 -11.07074,-2.42667 -3.58485,0.8861 -6.18432,6.1402 -9.42355,7.91608 z m 8.00432,79.594628 c 3.82751,1.20966 9.21398,-2.16929 13.22165,-2.01487 3.20982,0.12501 7.2947,3.13628 10.42731,2.42667 3.79075,-0.86404 6.72848,-6.19167 10.11478,-8.10359 3.15467,-1.77956 8.81321,-1.55895 11.33915,-4.15842 2.58477,-2.65463 2.00384,-8.54481 3.93414,-11.7105 1.59939,-2.61418 6.21373,-4.39374 7.1366,-7.31677 0.57656,-1.82353 0.0125,-4.02826 -0.65705,-6.24143 -5.78421,4.223 -13.69606,4.44965 -17.58996,0.90575 -4.18849,5.19896 -12.89787,7.10335 -17.46384,3.1478 -1.479,1.59743 -4.73925,3.95671 -7.41149,4.32256 -1.19233,12.05751 -8.56618,21.1066 -19.242,22.65019 2.01764,2.03003 3.73367,5.31542 6.1907,6.09261 z M 195.1563,79.906042 c 0.26027,-0.74608 0.55118,-1.44193 0.86843,-2.08855 -0.93389,-0.17407 -1.86308,-0.34701 -2.72565,-0.57636 0.71141,0.75781 1.33879,1.65011 1.85722,2.66491 z M 63.265657,114.22412 c -0.80469,1.65625 -1.96094,3.0625 -3.46875,4.21875 -1.51172,1.14843 -3.1836,2.07031 -5.01563,2.76562 -1.83594,0.6875 -3.60938,1.15234 -5.32813,1.39062 -2.21875,0.30468 -4.28125,0.23437 -6.1875,-0.20313 -1.89844,-0.4375 -3.74219,-1.01953 -5.53125,-1.75 0.64453,-2.03906 1.27343,-4.20703 1.89062,-6.5 l 0.8125,-0.10938 c 4.33203,-0.59375 8.02343,-1.73828 11.07812,-3.4375 3.05078,-1.69531 5.5039,-3.73828 7.35937,-6.125 1.85156,-2.38282 3.13281,-4.929688 3.84375,-7.640628 0.70703,-2.70703 0.8789,-5.375 0.51562,-8 -0.48047,-3.51954 -1.83594,-6.02344 -4.0625,-7.51563 -2.23047,-1.48828 -5.0586,-2 -8.48438,-1.53125 -3.07421,0.41797 -5.67187,1.65625 -7.79687,3.71875 -2.125,2.05469 -3.99219,4.94922 -5.59375,8.6875 -1.59375,3.74219 -3.09375,8.343748 -4.5,13.812498 -1.16797,-0.71875 -2.15235,-1.63281 -2.95313,-2.75 -0.79297,-1.11329 -1.29297,-2.45313 -1.5,-4.015628 -0.30469,-2.21875 0.10156,-4.03125 1.21875,-5.4375 1.11328,-1.41406 2.57812,-2.25 4.39062,-2.5 0.80078,-0.10157 1.10937,-0.83594 0.92187,-2.20313 -0.25,-1.85156 -1.21485,-3.26953 -2.89063,-4.25 -1.66797,-0.98828 -3.76172,-1.3125 -6.28125,-0.96875 -3.98047,0.55469 -7.01563,2.27344 -9.10938,5.15625 -2.09375,2.875 -2.85156,6.40234 -2.28125,10.57812 0.54296,3.980458 2.26562,7.234368 5.17187,9.765618 2.91406,2.52343 6.65625,4.10937 11.21875,4.76562 -0.19922,0.54296 -0.40235,1.10156 -0.60938,1.67187 -0.19922,0.5625 -0.39063,1.08594 -0.57813,1.5625 -1.44922,-0.40625 -2.96485,-0.70703 -4.54688,-0.90625 -1.58594,-0.19532 -3.28907,-0.17188 -5.10938,0.0781 -3.17579,0.4375 -5.74219,1.43359 -7.70313,2.98437 -1.96875,1.55469 -3.3593796,3.38672 -4.1718796,5.5 -0.82032,2.10546 -1.08594,4.21484 -0.79688,6.32812 0.29297,2.11719 1.02344,4.04297 2.1875,5.78125 1.1562496,1.74218 2.7343696,3.07812 4.7343696,4.01562 2,0.92578 4.35937,1.20703 7.07812,0.84375 3.125,-0.4375 5.73437,-1.70703 7.82812,-3.8125 2.10156,-2.10157 3.91406,-4.89844 5.4375,-8.39063 1.46875,1.38671 3.02343,2.68359 4.67187,3.89062 1.65625,1.21093 3.48828,2.14062 5.5,2.79687 2.01953,0.64843 4.21093,0.80859 6.57812,0.48437 1.45703,-0.20703 2.8164,-0.66406 4.07812,-1.375 1.26953,-0.70704 2.51562,-1.82813 3.73437,-3.35938 1.22656,-1.53125 2.47656,-3.63281 3.75,-6.3125 0.13894,-0.29143 0.27903,-0.5915 0.42027,-0.90021 0.49137,3.13782 1.49071,5.62701 3.00472,7.46757 1.60156,1.9375 3.6875,2.73047 6.25,2.375 2.67578,-0.36329 4.97265,-1.76563 6.89062,-4.20313 1.92578,-2.44532 3.4375,-5.30469 4.53125,-8.57813 l 0.28125,-0.0469 c -0.0234,3.17969 0.65625,5.75 2.03125,7.71875 1.375,1.96875 3.36718,2.77344 5.98437,2.40625 2.125,-0.28906 3.89843,-1.1875 5.32812,-2.6875 1.28034,-1.34297 2.38095,-2.93694 3.307343,-4.77915 0.0342,0.35356 0.0731,0.69129 0.11678,1.01318 0.21094,1.5625 0.86719,2.80859 1.96875,3.73437 1.11328,0.91796 2.54687,1.25781 4.29687,1.01562 1.76953,-0.23828 3.03906,-0.82031 3.8125,-1.75 0.76953,-0.92579 1.21875,-2.02344 1.34375,-3.29688 0.13281,-1.26954 0.11718,-2.53516 -0.0469,-3.79688 l -0.46875,-3.40625 c -0.3125,-2.25781 -0.22657,-4.42578 0.26562,-6.5 0.48828,-2.07032 1.26562,-3.80469 2.32812,-5.20313 1.0625,-1.39454 2.32812,-2.19141 3.79687,-2.39063 0.85156,-0.125 1.57031,0.008 2.15625,0.39062 0.59375,0.38671 0.95312,1.00781 1.07812,1.85937 0.13281,1 0.0352,2.25781 -0.29688,3.76562 -0.33594,1.5 -0.64844,3.15625 -0.9375,4.96875 -0.29297,1.80468 -0.3086,3.66406 -0.0469,5.57812 0.28906,2.11718 1.01953,3.89062 2.1875,5.32812 1.17578,1.42969 2.94531,1.98047 5.3125,1.65625 2.0625,-0.28125 3.84375,-1.03516 5.34375,-2.26563 1.5,-1.22657 2.79687,-2.72266 3.89062,-4.48438 0.6826,-1.10435 1.29522,-2.22697 1.83975,-3.36879 0.57032,1.76548 1.49774,3.25808 2.78499,4.47642 1.82031,1.71875 4.04687,2.40234 6.67187,2.04687 1.90625,-0.25782 3.72265,-1.27344 5.45312,-3.04688 1.73828,-1.78125 2.9375,-4.05078 3.59375,-6.8125 0.23828,-0.80078 0.60937,-1.25 1.10937,-1.34375 0.5,-0.10156 0.79687,0.17969 0.89062,0.84375 0.22656,1.65625 0.10156,3.36719 -0.375,5.125 -0.48047,1.76172 -1.24219,3.41797 -2.28125,4.96875 -1.04297,1.55468 -2.28907,2.85937 -3.73438,3.92187 -1.44922,1.07031 -3.0586,1.73437 -4.82813,1.98437 -2.51172,0.28906 -4.59375,-0.043 -6.25,-1 -1.64844,-0.94922 -2.69141,-2.34375 -3.14063,-4.1875 -0.11329,-0.39454 -0.42969,-0.44141 -0.95313,-0.14063 -0.51953,0.30468 -1.07031,0.90234 -1.65625,1.79687 -0.59375,0.90625 -1.07031,2.09375 -1.4375,3.5625 -0.36328,1.46875 -0.41406,3.15625 -0.15625,5.0625 0.5,3.63281 1.99219,6.34375 4.46875,8.125 2.46875,1.78906 5.6914,2.41406 9.67187,1.875 2.875,-0.39844 5.34765,-1.45313 7.42187,-3.17188 2.07031,-1.71875 3.8125,-4.27344 5.21875,-7.65625 1.40625,-3.375 2.5625,-7.76172 3.46875,-13.15625 0.80078,1.01171 1.7539,1.44531 2.85937,1.29687 1.82031,-0.25 3.36328,-1.00781 4.625,-2.28125 1.25781,-1.28125 2.34375,-2.90625 3.25,-4.875 0.33475,-0.72101 0.65745,-1.46768 0.96791,-2.24022 0.45941,2.68005 1.3303,4.61306 2.61565,5.80201 1.40625,1.29296 3.11328,1.79687 5.125,1.51562 1.96875,-0.26953 3.6289,-1.07031 4.98437,-2.40625 1.36328,-1.33203 2.5039,-2.94531 3.42187,-4.84375 0.91406,-1.90625 1.66015,-3.78906 2.23437,-5.65625 -0.0117,1.125 0.0508,2.16797 0.1875,3.125 0.75,5.49219 3.28906,7.9375 7.625,7.34375 2.0625,-0.28125 3.84375,-1.03516 5.34375,-2.26563 1.5,-1.22656 2.79687,-2.72656 3.89062,-4.5 1.09375,-1.76954 2.00781,-3.58594 2.75,-5.45313 0.13239,-0.33625 0.26102,-0.6686 0.38586,-0.99708 0.52156,2.85112 1.48671,5.13631 2.90093,6.85555 1.60156,1.9375 3.6875,2.73047 6.25,2.375 2.67578,-0.36329 4.97265,-1.76563 6.89062,-4.20313 1.92578,-2.44532 3.4375,-5.30469 4.53125,-8.57813 l 0.28125,-0.0469 c -0.0234,3.17969 0.65625,5.75 2.03125,7.71875 1.375,1.96875 3.36719,2.77344 5.98438,2.40625 2.125,-0.28906 3.89843,-1.1875 5.32812,-2.6875 1.4375,-1.50781 2.64843,-3.33203 3.64062,-5.46875 0.64571,-1.39351 1.23806,-2.817038 1.77814,-4.270588 0.02,0.1674 0.0413,0.33408 0.0639,0.50004 0.38672,2.824208 1.48828,5.101558 3.3125,6.828118 1.82031,1.71875 4.04687,2.40234 6.67187,2.04687 1.90625,-0.25782 3.72265,-1.27344 5.45312,-3.04688 1.73828,-1.78125 2.9375,-4.05078 3.59375,-6.812498 0.23828,-0.80078 0.60937,-1.25 1.10937,-1.34375 0.5,-0.10156 0.79687,0.17969 0.89062,0.84375 0.22656,1.65625 0.10156,3.367188 -0.375,5.124998 -0.48047,1.76172 -1.24219,3.41797 -2.28125,4.96875 -1.04297,1.55468 -2.28907,2.85937 -3.73438,3.92187 -1.44922,1.07031 -3.0586,1.73437 -4.82813,1.98437 -2.51172,0.28906 -4.59375,-0.043 -6.25,-1 -1.64844,-0.94922 -2.69141,-2.34375 -3.14063,-4.1875 -0.11329,-0.39454 -0.42969,-0.44141 -0.95313,-0.14063 -0.51953,0.30468 -1.07031,0.90234 -1.65625,1.79687 -0.59375,0.90625 -1.07031,2.09375 -1.4375,3.5625 -0.36328,1.46875 -0.41406,3.15625 -0.15625,5.0625 0.5,3.63281 1.99219,6.34375 4.46875,8.125 2.46875,1.78906 5.6914,2.41406 9.67187,1.875 2.875,-0.39844 5.34765,-1.45313 7.42187,-3.17188 2.07031,-1.71875 3.8125,-4.27344 5.21875,-7.65625 1.40625,-3.375 2.5625,-7.76172 3.46875,-13.15625 0.80078,1.01171 1.7539,1.44531 2.85937,1.29687 1.82031,-0.25 3.36328,-1.00781 4.625,-2.28125 1.25781,-1.28125 2.34375,-2.90625 3.25,-4.874998 0.69005,-1.48625 1.32889,-3.08159 1.91485,-4.78769 0.34185,0.89743 0.75072,1.7517 1.22749,2.56282 1.25,2.10547 2.9375,3.710938 5.0625,4.812498 2.125,1.09375 4.69531,1.4375 7.71875,1.03125 4.38281,-0.60157 8.33203,-2.773438 11.84375,-6.515628 3.51953,-3.73828 6.51953,-8.90625 9,-15.5 0.23828,-0.53907 0.10937,-1.03516 -0.39063,-1.48438 -0.5,-0.44532 -1.08985,-0.71094 -1.76563,-0.79688 -0.67969,-0.0937 -1.17188,0.1875 -1.48438,0.84375 -1.36719,2.86718 -3.33594,5.14062 -5.90625,6.82812 -2.5625,1.67968 -5.13282,2.69531 -7.70313,3.04687 -2.16797,0.29297 -4.0625,0.21094 -5.6875,-0.25 -1.625,-0.46875 -2.52735,-1.35938 -2.70313,-2.67188 -0.0742,-0.50781 0.0312,-0.84375 0.3125,-1 0.28906,-0.16406 0.57031,-0.19531 0.84375,-0.0937 0.91406,0.38672 1.89062,0.58594 2.92187,0.59375 1.03906,0.0117 2.08593,-0.0508 3.14062,-0.1875 2.46875,-0.34375 4.52343,-1.22656 6.17187,-2.65625 1.64453,-1.42578 2.84765,-3.11328 3.60937,-5.0625 0.75781,-1.95703 1.01953,-3.84375 0.78125,-5.65625 -0.23047,-1.66406 -0.79688,-3.17578 -1.70313,-4.53125 -0.90625,-1.36328 -2.16797,-2.38281 -3.78125,-3.0625 -1.60547,-0.67578 -3.58594,-0.85156 -5.9375,-0.53125 -3.08594,0.41796 -5.75,1.47656 -8,3.17187 -2.25,1.6875 -4.07813,3.77344 -5.48438,6.25 -1.40625,2.46875 -2.37891,5.11719 -2.92188,7.9375 -0.21814,1.13817 -0.36465,2.26738 -0.43898,3.38711 -0.78686,1.41432 -1.64707,2.7858 -2.57836,4.11901 -1.10547,1.58593 -2.24219,2.45312 -3.40625,2.60937 -0.86719,0.11718 -1.60157,-0.17969 -2.20313,-0.89063 -0.60547,-0.70704 -0.79297,-2.09766 -0.5625,-4.17188 0.63281,-3.22656 1.28515,-5.875 1.95312,-7.9375 0.66406,-2.0625 1.20312,-3.75 1.60937,-5.0625 0.41406,-1.32032 0.5625,-2.42969 0.4375,-3.32813 -0.11719,-0.85157 -0.39844,-1.50391 -0.84375,-1.95313 -0.44922,-0.45704 -1.17969,-0.61719 -2.1875,-0.48438 -1.15625,0.16796 -2.03125,0.53906 -2.625,1.10937 -0.58594,0.5625 -1.10938,1.12109 -1.57813,1.67187 -0.46875,0.54296 -1.13282,0.87109 -1.98438,0.98437 -0.5,0.0625 -0.92188,-0.0195 -1.26563,-0.25 -0.33594,-0.23829 -0.7461,-0.52344 -1.23438,-0.85938 -0.48047,-0.34375 -1.15625,-0.59375 -2.03125,-0.75 -0.86719,-0.16407 -2.05469,-0.14844 -3.5625,0.0469 -3.23047,0.44922 -5.94922,1.71094 -8.15625,3.78125 -2.19922,2.0625 -3.92969,4.58594 -5.1875,7.5625 -0.95115,2.24494 -1.65212,4.56583 -2.09954,6.95928 -0.48781,0.0314 -0.85882,0.32418 -1.11745,0.87377 -0.60547,1.3125 -1.33985,2.375 -2.20313,3.1875 -0.85547,0.8125 -1.9375,1.30859 -3.25,1.48437 -1.65625,0.23047 -2.75,-0.36328 -3.28125,-1.78125 -0.53125,-1.41407 -0.35547,-3.59766 0.53125,-6.54688 0.5625,-2.32031 1.13281,-4.22656 1.71875,-5.71875 0.58203,-1.5 0.78125,-2.95313 0.59375,-4.35938 -0.11719,-0.85157 -0.39844,-1.50391 -0.84375,-1.95313 -0.44922,-0.45704 -1.17969,-0.61719 -2.1875,-0.48438 -1.15625,0.16796 -2.03125,0.53906 -2.625,1.10937 -0.58594,0.5625 -1.10938,1.12109 -1.57813,1.67187 -0.46875,0.54296 -1.13282,0.87109 -1.98438,0.98437 -0.5,0.0625 -0.92188,-0.0195 -1.26563,-0.25 -0.33594,-0.23829 -0.7461,-0.52344 -1.23438,-0.85938 -0.48047,-0.34375 -1.15625,-0.59375 -2.03125,-0.75 -0.86719,-0.16407 -2.05469,-0.14844 -3.5625,0.0469 -2.61719,0.36718 -4.88282,1.25781 -6.79688,2.67187 -1.90625,1.40625 -3.51172,3.16406 -4.8125,5.26562 -1.30469,2.10547 -2.3086,4.38672 -3.01563,6.84375 -0.49789,1.70473 -0.8702,3.40947 -1.11821,5.11681 -0.33966,0.11752 -0.6094,0.38097 -0.80921,0.79034 -0.60547,1.21093 -1.2461,2.23437 -1.92188,3.07812 -0.66797,0.83594 -1.57813,1.33594 -2.73438,1.5 -1.02344,0.13672 -1.96875,-0.082 -2.84375,-0.65625 -0.86719,-0.58204 -1.39844,-1.57813 -1.59375,-2.98438 -0.16797,-1.25781 -0.0899,-2.72656 0.23437,-4.40625 0.33203,-1.6875 0.67578,-3.39063 1.03125,-5.10938 0.35156,-1.71875 0.4375,-3.28125 0.25,-4.6875 -0.15625,-1.10156 -0.46875,-1.85156 -0.9375,-2.25 -0.46094,-0.40625 -1.07032,-0.55469 -1.82813,-0.45313 -1.90625,0.26172 -3.49219,1.8125 -4.75,4.65625 -1.25,2.84375 -2.32032,6.83594 -3.20313,11.96875 l -0.0469,0.3125 c -0.38672,1.96094 -1.07813,3.42969 -2.07813,4.406248 -0.99219,0.98047 -2.16797,1.5625 -3.53125,1.75 -1.26172,0.17968 -2.14844,-0.004 -2.65625,-0.54688 -0.51172,-0.55079 -0.83985,-1.35938 -0.98438,-2.421878 -0.21094,-1.50781 -0.14844,-3.09375 0.1875,-4.75 0.34375,-1.66407 0.6914,-3.36719 1.04687,-5.10938 0.35156,-1.75 0.42187,-3.42578 0.20312,-5.03125 -0.28125,-2.00781 -1.21094,-2.90625 -2.78125,-2.6875 -2.10547,0.29297 -3.85547,2.02344 -5.25,5.1875 -1.38672,3.15625 -2.57813,7.625 -3.57813,13.406248 -0.003,0.0209 -0.007,0.0418 -0.01,0.0626 -0.85647,1.58292 -1.8039,3.11226 -2.83916,4.59432 -1.10547,1.58593 -2.24219,2.45312 -3.40625,2.60937 -0.86719,0.11718 -1.60157,-0.17969 -2.20313,-0.89063 -0.60547,-0.70704 -0.79297,-2.09766 -0.5625,-4.17188 0.63281,-3.226558 1.28515,-5.874998 1.95312,-7.937498 0.66406,-2.0625 1.20312,-3.75 1.60937,-5.0625 0.41406,-1.32032 0.5625,-2.42969 0.4375,-3.32813 -0.11719,-0.85157 -0.39844,-1.50391 -0.84375,-1.95313 -0.44922,-0.45704 -1.17969,-0.61719 -2.1875,-0.48438 -1.15625,0.16796 -2.03125,0.53906 -2.625,1.10937 -0.58594,0.5625 -1.10938,1.12109 -1.57813,1.67187 -0.46875,0.54296 -1.13282,0.87109 -1.98438,0.98437 -0.5,0.0625 -0.92188,-0.0195 -1.26563,-0.25 -0.33594,-0.23829 -0.7461,-0.52344 -1.23438,-0.85938 -0.48047,-0.34375 -1.15625,-0.59375 -2.03125,-0.75 -0.86719,-0.16407 -2.05469,-0.14844 -3.5625,0.0469 -3.23047,0.44922 -5.94922,1.71094 -8.15625,3.78125 -2.19922,2.0625 -3.92969,4.58594 -5.1875,7.5625 -1.25782,2.96875 -2.07813,6.070308 -2.45313,9.296868 -0.0289,0.24875 -0.0555,0.49625 -0.0798,0.74251 -0.27922,0.43297 -0.56503,0.83168 -0.85742,1.19674 -0.67969,0.84375 -1.59375,1.34375 -2.75,1.5 -2.41797,0.33594 -3.80469,-0.75781 -4.15625,-3.28125 -0.16797,-1.25782 -0.1211,-2.42969 0.14062,-3.51563 0.25781,-1.09375 0.51562,-2.20703 0.76562,-3.343748 0.25,-1.13282 0.28515,-2.35938 0.10937,-3.67188 -0.26172,-1.90625 -1.03907,-3.46094 -2.32813,-4.67188 -1.29297,-1.20703 -3.10157,-1.65625 -5.42188,-1.34375 -1.65625,0.23047 -3.19532,0.82422 -4.60938,1.78125 -1.40625,0.96093 -2.71485,2.21484 -3.92188,3.76562 -1.04297,1.375 -1.94532,1.9375 -2.70313,1.6875 -0.75,-0.25 -1.23047,-1.10938 -1.4375,-2.57813 -0.10547,-0.75781 -0.35938,-1.40625 -0.76563,-1.9375 -0.40625,-0.53125 -1.10938,-0.72656 -2.10938,-0.59375 -0.96875,0.13672 -1.88672,1.08594 -2.75,2.84375 -0.85547,1.75 -1.6211,3.99609 -2.29688,6.734368 -0.67578,2.74218 -1.23828,5.65234 -1.6875,8.73437 -0.0623,0.45568 -0.12059,0.90629 -0.17483,1.35182 -0.35973,0.51523 -0.75011,0.97099 -1.171163,1.36728 -0.85547,0.8125 -1.9375,1.30859 -3.25,1.48437 -1.65625,0.23047 -2.75,-0.36328 -3.28125,-1.78125 -0.53125,-1.41407 -0.35547,-3.59766 0.53125,-6.54688 0.5625,-2.32031 1.13281,-4.22656 1.71875,-5.71875 0.58203,-1.499998 0.78125,-2.953128 0.59375,-4.359378 -0.11719,-0.85157 -0.39844,-1.50391 -0.84375,-1.95313 -0.44922,-0.45704 -1.17969,-0.61719 -2.1875,-0.48438 -1.15625,0.16796 -2.03125,0.53906 -2.625,1.10937 -0.58594,0.5625 -1.10938,1.12109 -1.57813,1.67187 -0.46875,0.54296 -1.13282,0.87109 -1.98438,0.98437 -0.5,0.0625 -0.92188,-0.0195 -1.26563,-0.25 -0.33594,-0.23829 -0.7461,-0.52344 -1.23438,-0.85938 -0.48047,-0.34375 -1.15625,-0.59375 -2.03125,-0.75 -0.86719,-0.16407 -2.05469,-0.14844 -3.5625,0.0469 -2.61719,0.36718 -4.88282,1.25781 -6.79688,2.67187 -1.90625,1.40625 -3.51172,3.164058 -4.8125,5.265618 -1.30469,2.10547 -2.3086,4.38672 -3.01563,6.84375 -0.34623,1.18545 -0.63173,2.37091 -0.85693,3.55724 -0.0886,0.11077 -0.16855,0.24111 -0.23993,0.39102 z M 48.858787,93.348482 c 0.85156,-0.11328 1.50781,0.0937 1.96875,0.625 0.45703,0.52344 0.73437,1.15625 0.82812,1.90625 0.17578,1.26172 -0.08985,2.69922 -0.79688,4.312498 -0.69922,1.60547 -1.82032,3.0625 -3.35938,4.375 -1.54296,1.3125 -3.53906,2.21484 -5.98437,2.70312 0.0625,-0.3125 0.1289,-0.59766 0.20312,-0.85938 1.05078,-3.84375 2.03125,-6.687498 2.9375,-8.531248 0.90625,-1.84375 1.71875,-3.03906 2.4375,-3.59375 0.71875,-0.5625 1.30468,-0.875 1.76562,-0.9375 z m -25.64062,31.968758 c -0.8125,0.11719 -1.44922,-0.008 -1.90625,-0.375 -0.46094,-0.375 -0.73047,-0.84375 -0.8125,-1.40625 -0.07422,-0.53907 0.08593,-1.05469 0.48437,-1.54688 0.39453,-0.48829 1.01953,-0.79688 1.875,-0.92188 0.70703,-0.0937 1.39843,-0.004 2.07812,0.26562 0.67578,0.26171 1.35937,0.65234 2.04687,1.17187 -1.15625,1.69922 -2.41407,2.63672 -3.76563,2.8125 z m 54.64373,-7.12012 c -1.15625,0.15625 -2.125,-0.082 -2.90625,-0.71875 -0.78125,-0.63281 -1.26172,-1.58203 -1.4375,-2.84375 -0.14844,-1.10157 -0.03125,-2.23438 0.34375,-3.39063 0.38281,-1.15625 1.0039,-2.14844 1.85937,-2.98438 0.86328,-0.84375 1.95312,-1.35156 3.26562,-1.53125 1.20703,-0.16407 2.21093,0.0586 3.01562,0.67187 0.80078,0.60546 1.28906,1.53906 1.46875,2.79687 0.14453,1.0625 0.008,2.17187 -0.40625,3.32812 -0.40625,1.15625 -1.04688,2.18359 -1.92188,3.07812 -0.875,0.88672 -1.96875,1.41797 -3.28125,1.59375 z m 75.158243,-10.03335 c -1.41797,0.19922 -2.48438,-0.0625 -3.20313,-0.78125 -0.71094,-0.71875 -1.14063,-1.63281 -1.29688,-2.75 -0.14844,-1.10157 -0.0312,-2.23438 0.34375,-3.39063 0.38281,-1.15625 0.99218,-2.148438 1.82812,-2.984378 0.83203,-0.84375 1.85156,-1.34375 3.0625,-1.5 1.46875,-0.20704 2.58203,0.0391 3.34375,0.73437 0.75781,0.69921 1.21875,1.60156 1.375,2.703118 0.14453,1.0625 0.008,2.17187 -0.40625,3.32812 -0.40625,1.15625 -1.03907,2.17969 -1.89063,3.0625 -0.84375,0.88671 -1.89844,1.41406 -3.15625,1.57812 z M 229.5155,96.943412 c -1.15625,0.15625 -2.125,-0.082 -2.90625,-0.71875 -0.78125,-0.63281 -1.26172,-1.58203 -1.4375,-2.84375 -0.14844,-1.10157 -0.0312,-2.23438 0.34375,-3.39063 0.38281,-1.15625 1.0039,-2.14844 1.85937,-2.98438 0.86328,-0.84375 1.95312,-1.35156 3.26562,-1.53125 1.20703,-0.16407 2.21093,0.0586 3.01562,0.67187 0.80078,0.60546 1.28906,1.53906 1.46875,2.79687 0.14453,1.0625 0.008,2.17187 -0.40625,3.32812 -0.40625,1.15625 -1.04688,2.18359 -1.92188,3.07812 -0.875,0.88672 -1.96875,1.41797 -3.28125,1.59375 z m 39.92011,-4.9893 c -1.41797,0.19922 -2.48438,-0.0625 -3.20313,-0.78125 -0.71094,-0.71875 -1.14063,-1.63281 -1.29688,-2.75 -0.14844,-1.10157 -0.0312,-2.23438 0.34375,-3.39063 0.38281,-1.15625 0.99218,-2.14844 1.82812,-2.98438 0.83203,-0.84375 1.85156,-1.34375 3.0625,-1.5 1.46875,-0.20704 2.58203,0.0391 3.34375,0.73437 0.75781,0.69921 1.21875,1.60156 1.375,2.70312 0.14453,1.0625 0.008,2.17187 -0.40625,3.32812 -0.40625,1.15625 -1.03907,2.17969 -1.89063,3.0625 -0.84375,0.88671 -1.89844,1.41406 -3.15625,1.57812 z m 37.9861,-12.17801 c -1.21094,0.16796 -2.14844,-0.0234 -2.8125,-0.57813 -0.65625,-0.55078 -1.04297,-1.22656 -1.15625,-2.03125 -0.13672,-1 0.16015,-2.00781 0.89062,-3.03125 0.72656,-1.03125 1.82031,-1.64453 3.28125,-1.84375 1.15625,-0.15625 2.0664,0.0312 2.73437,0.5625 0.66406,0.52344 1.05468,1.21094 1.17187,2.0625 0.13281,0.96094 -0.15235,1.96094 -0.85938,3 -0.69922,1.04296 -1.78125,1.66406 -3.25,1.85937 z m -174.50686,-27.15855 -0.75,-1.15625 -6.35937,-10.21875 -1.90625,-3.34375 -2.59375,1.625 2.17188,3.17188 6.35938,10.21875 1.95313,3.46875 9.53125,-5.9375 -1.03125,-2.40625 z m 23.40137,-9.61007 c 0.71875,-2.05078 0.57813,-4.72266 -0.42187,-8.015619 -0.98047,-3.25781 -2.32812,-5.53125 -4.04687,-6.8125 -1.71094,-1.28125 -3.72656,-1.57031 -6.04687,-0.875 -2.35547,0.71094 -3.88281,2.07031 -4.59375,4.07813 -0.70703,2.01172 -0.57031,4.64844 0.40625,7.906249 1,3.29297 2.35156,5.60156 4.0625,6.92188 1.70703,1.3125 3.73828,1.61719 6.09375,0.90625 2.32031,-0.69531 3.83594,-2.06641 4.54688,-4.10937 z m -8.07813,1.59375 c -0.79297,-0.30078 -1.5,-0.94531 -2.125,-1.9375 -0.625,-0.98828 -1.21484,-2.39062 -1.76562,-4.20312 -0.52344,-1.749999 -0.79297,-3.195309 -0.8125,-4.343749 -0.0234,-1.15625 0.21875,-2.07031 0.71875,-2.75 0.50781,-0.6875 1.28125,-1.1875 2.3125,-1.5 1.53906,-0.45703 2.82813,-0.22656 3.85938,0.6875 1.03906,0.90625 1.95313,2.66406 2.73438,5.26563 0.55078,1.812499 0.83203,3.304689 0.84375,4.468749 0.008,1.16797 -0.23437,2.09375 -0.73437,2.78125 -0.49219,0.6875 -1.25,1.18359 -2.28125,1.48438 -1.04297,0.32422 -1.96094,0.33984 -2.75,0.0469 z m 26.34867,-4.67091 -1.73437,-2.35937 c 1.13281,-0.51953 2.03516,-1.343749 2.70313,-2.468749 0.66406,-1.125 0.98828,-2.48437 0.96875,-4.07812 -0.0117,-2.23828 -0.59375,-3.95703 -1.75,-5.15625 -1.14844,-1.19531 -2.67969,-1.78906 -4.59375,-1.78125 l -6.95312,0.0625 0.20313,3.84375 0.0937,12.031249 -0.14062,3.96875 3.17188,-0.0312 -0.29687,-3.96875 -0.0156,-1.84375 3.75,-0.0312 1.34375,1.84375 2.48438,3.9375 4.03125,-0.0312 z m -8.4375,-13.218749 3.25,-0.0156 c 1.47656,-0.008 2.55469,0.32813 3.23438,1.01563 0.67578,0.6875 1.01953,1.79688 1.03125,3.32813 0.0195,1.55469 -0.3125,2.6875 -1,3.40625 -0.67969,0.71875 -1.75781,1.08594 -3.23437,1.09375 l -3.20312,0.0156 z m 15.76101,18.224159 3,0.625 0.64063,-3.92187 2.42188,-11.781249 0.92188,-3.73437 -3,-0.625 -0.59375,3.8125 -2.42187,11.781249 z m 16.0499,-18.062039 c -0.52344,0.19922 -0.875,0.5625 -1.0625,1.09375 -0.1875,0.52344 -0.14844,1.02344 0.125,1.5 0.26953,0.46875 0.69531,0.80859 1.28125,1.01563 l 0.0469,0.0156 c -0.14844,0.35547 -0.40625,0.71484 -0.78125,1.07813 -0.375,0.36719 -0.73437,0.58984 -1.07812,0.67188 l -0.0937,0.0937 0.51563,0.92188 c 0.85156,-0.17578 1.6875,-0.61719 2.5,-1.32812 0.82031,-0.70703 1.375,-1.44531 1.65625,-2.21875 0.21875,-0.625 0.20313,-1.19141 -0.0469,-1.70312 -0.25,-0.50781 -0.69922,-0.87891 -1.34375,-1.10937 -0.625,-0.21875 -1.19922,-0.22656 -1.71875,-0.0312 z m 10.92062,27.823589 c 1.55078,-0.25 2.79688,-1.15234 3.73438,-2.70312 0.53125,-0.875 0.8125,-1.71094 0.84375,-2.5 0.0312,-0.78125 -0.19531,-1.59766 -0.67187,-2.45312 -0.48047,-0.86328 -1.26562,-1.84766 -2.35937,-2.95312 -0.84375,-0.86328 -1.45312,-1.58203 -1.82812,-2.15625 -0.375,-0.57031 -0.57422,-1.09766 -0.59375,-1.57812 -0.0234,-0.48828 0.12891,-1.00391 0.45313,-1.54687 0.47656,-0.78906 1.125,-1.22266 1.9375,-1.29687 0.8125,-0.0703 1.76953,0.22656 2.875,0.89063 0.78906,0.48047 1.48438,1.13281 2.07813,1.95313 0.59375,0.8125 0.96094,1.60938 1.10938,2.39063 l 0.39063,0.125 1.6875,-2.01562 c -0.26172,-0.89453 -0.76562,-1.78125 -1.51562,-2.65625 -0.75,-0.88281 -1.63672,-1.632809 -2.65625,-2.249999 -1.71875,-1.03906 -3.33984,-1.41016 -4.85937,-1.10937 -1.51172,0.29297 -2.72656,1.19922 -3.64062,2.718749 -0.8125,1.34375 -1.07812,2.61719 -0.79687,3.8125 0.28125,1.19922 1.14453,2.55859 2.59375,4.07813 0.95703,0.96875 1.64453,1.75781 2.0625,2.35938 0.42578,0.60547 0.64844,1.13281 0.67188,1.57813 0.0312,0.44531 -0.10547,0.92188 -0.40625,1.42188 -0.42969,0.72656 -1.07812,1.11328 -1.95312,1.15625 -0.875,0.0508 -1.87109,-0.25781 -2.98437,-0.92187 -1.77344,-1.0625 -3.07422,-2.84375 -3.90625,-5.34375 l -0.375,-0.0937 -1.04687,2.5 c 0.34375,1.21875 0.85156,2.25391 1.53125,3.10938 0.6875,0.85156 1.59375,1.61719 2.71875,2.29688 1.72656,1.03906 3.36328,1.4375 4.90625,1.1875 z m -52.07441,139.947768 0.9375,-3.46875 -6.23437,-1.6875 3.79688,-13.875 -3.82812,-1.04687 -4.73437,17.34375 z m 12.75984,-5.378 2.34375,-6.375 2.20313,6.42188 z m 4.09375,-11.0625 -3.35937,-0.0469 -7.51562,17.90625 4.26563,0.0469 1.34375,-3.60937 6.84375,0.0781 1.25,3.64063 4.26563,0.0469 z m 20.57325,11.03927 c -0.3125,0.51172 -0.76172,0.84375 -1.34375,1 l -2.40625,0.625 -1.09375,-4.20312 2.40625,-0.625 c 0.58203,-0.15625 1.14063,-0.0781 1.67188,0.23438 0.53125,0.3125 0.86719,0.75 1.01563,1.3125 0.15625,0.58594 0.0703,1.13672 -0.25,1.65625 z m -3.07812,-7.01563 c -0.29297,0.5 -0.71094,0.82031 -1.25,0.95313 l -1.32812,0.34375 -1.0625,-4.03125 1.32813,-0.34375 c 0.53906,-0.13281 1.0625,-0.0625 1.5625,0.21875 0.5,0.28125 0.82031,0.70313 0.96875,1.26563 0.14453,0.55469 0.0703,1.08594 -0.21875,1.59375 z m 5.46875,1.8125 c -0.88672,-0.58203 -1.84375,-0.85937 -2.875,-0.82812 0.58203,-0.44531 0.97266,-1.03516 1.17188,-1.76562 0.19531,-0.73828 0.17969,-1.55078 -0.0469,-2.4375 -0.21875,-0.8125 -0.61719,-1.48828 -1.1875,-2.03125 -0.5625,-0.55078 -1.26172,-0.92969 -2.09375,-1.14062 -0.82422,-0.20703 -1.73047,-0.17969 -2.71875,0.0781 l -5.98437,1.54688 4.53125,17.40625 7.03125,-1.82812 c 1.66406,-0.4375 2.83594,-1.22656 3.51563,-2.375 0.6875,-1.15625 0.83594,-2.48437 0.45313,-3.98437 -0.3125,-1.1875 -0.91406,-2.06641 -1.79687,-2.64062 z"
     
     stroke-width="5"
     id="path2"
     style="fill:#ffecdb;fill-opacity:1" />
</svg>
