<?xml version="1.0" standalone="no"?>
<!DOCTYPE svg PUBLIC "-//W3C//DTD SVG 1.1//EN" "http://www.w3.org/Graphics/SVG/1.1/DTD/svg11.dtd">
<svg xmlns="http://www.w3.org/2000/svg" xmlns:xlink="http://www.w3.org/1999/xlink" id="ey7BoQghFAd1" viewBox="0 0 375 374.999991" shape-rendering="geometricPrecision" text-rendering="geometricPrecision" project-id="53c585a366564e6f84d65ca3d92f66d3" export-id="b1541299d84e4c8fbbfbf30ce459b46d" cached="false" width="375" height="375"><path d="M158.98438,76.30472c8.32813-2.05078,19.34766,6.01953,27.92188,6.11328c9.03125.10547,20.80078-8.03906,29.53906-5.76562c9.34375,2.42578,16.16797,16.03125,24.57813,20.76953c7.76563,4.37109,21.90235,3.11328,28.15625,9.46094c6.22266,6.31641,4.63672,20.4336,9,28.15235.85177,1.5085,2.02227,2.95043,3.37249,4.35782c4.42335-1.73811,9.30222-2.17169,13.10515-.63176c6.21818-5.06057,13.56207-2.65987,15.59,2.82233c15.32097-16.28848,31.88573-9.09567,33.73354,5.51026c4.6457-.18887,7.99063,4.33695,7.66061,8.33259-1.62103,6.23022-7.67805,16.96013-12.90207,21.23466-6.67428,6.23001-19.77196,9.20337-26.53452,2.84583-2.16361,2.9753-6.64015,6.80105-9.59809,6.52276-1.11205,6.27421-3.74969,11.8912-7.59227,15.98339c1.8582,6.04421,3.66119,12.1567,2.08703,17.13933-2.32812,7.37891-13.96484,11.86328-18,18.46484-4.87109,7.97656-3.40234,22.83594-9.92188,29.53906-6.375,6.55078-20.64453,5.99609-28.60547,10.48438-8.54297,4.81641-15.94922,18.26563-25.51172,20.4375-7.90234,1.79688-18.21094-5.80078-26.3086-6.11328-10.11328-.39453-23.69922,8.125-33.34766,5.07422-7.44531-2.35156-12.19531-13.83984-18.8086-18-8.32422-5.23828-23.91406-4.41016-30.69141-11.53906-5.69531-5.98828-4.58203-18.90625-8.38672-26.24219-4.60675-8.87362-17.56713-16.84585-20.81058-26.43778-6.74642,4.67765-17.4511,4.71138-23.6944-.78471-8.61954,11.71378-21.35213,10.9793-28.80542,5.28263-9.11321-6.96538-8.74274-24.85173,5.85937-32.05991-15.96225-26.16116,10.4567-40.82756,24.067-30.63072c8.27702-9.07204,19.02136-10.02202,25.82796-4.22754c4.79548-5.88851,12.70357-11.03519,16.13419-16.8998c4.94922-8.46484,4.41406-23.84766,11.53906-30.57813c6.30469-5.95703,19.97266-4.48828,27.57813-8.65625c8.16406-4.47266,14.72656-17.73438,23.76953-19.96094l.00003-.00001Zm-21.45313,24.01953c-7.26563,3.98047-20.32422,2.57813-26.34766,8.26953-6.80859,6.42969-6.29297,21.125-11.02344,29.21094-3.68678,6.30676-12.79717,11.74682-16.98416,18.30423c1.36255,2.12957,2.37807,4.70383,2.93193,7.69812.02062-.75857.11155-1.49906.28749-2.21745c1.99349-8.14303,13.71457-14.17461,17.94533-21.40936c4.50206-7.69479,4.01057-21.68459,10.49432-27.80661c5.72882-5.41427,18.16158-4.08134,25.07785-7.87172c7.42742-4.06955,13.39609-16.12878,21.61775-18.15372c7.5729-1.86373,17.59539,5.47325,25.3924,5.56368c8.20987.09437,18.91651-7.31339,26.86295-5.24913c8.4969,2.20974,14.70149,14.58353,22.35302,18.88899c7.06175,3.97911,19.91522,2.83492,25.60473,8.60699c5.65805,5.74455,4.21503,18.5823,8.18235,25.6008.92438,1.63573,2.26039,3.18535,3.79394,4.69825c1.05773-1.08079,2.28597-2.06333,3.62507-2.92156-1.29412-1.34773-2.41601-2.72843-3.23182-4.17292-4.16797-7.375-2.65234-20.86328-8.59766-26.89844-5.97656-6.0625-19.48047-4.85938-26.89844-9.03906-8.03516-4.52344-14.55469-17.51953-23.48047-19.83985-8.34766-2.17188-19.59375,5.60938-28.21875,5.51172-8.19531-.09375-18.72266-7.80078-26.67969-5.84375-8.63672,2.12891-14.90625,14.79688-22.70703,19.07031l-.00001.00001ZM101.51953,238.84379c3.63281,7.00781,2.57031,19.34766,8.01172,25.07031c6.47656,6.80859,21.36719,6.01953,29.32422,11.02344c6.3125,3.97266,10.85156,14.94922,17.96875,17.19531c9.21484,2.91406,22.19531-5.22266,31.85547-4.84766c7.73438.29688,17.58594,7.55859,25.13281,5.83984c9.13672-2.07422,16.21094-14.92188,24.3711-19.52344c7.60938-4.28906,21.24219-3.76172,27.33203-10.01953c6.22656-6.39844,4.82422-20.59766,9.48047-28.21875c3.85156-6.30469,14.97266-10.58984,17.19531-17.63672c1.168-3.70468.38556-8.06151-.85509-12.5322-1.32089.91294-2.73662,1.67401-4.23919,2.2616.66209,3.14097.87761,6.14833.03903,8.80318-2.11538,6.70787-12.70013,10.78528-16.36862,16.78934-4.43129,7.25441-3.09443,20.76845-9.02378,26.86295-5.7996,5.95687-18.77497,5.45359-26.01758,9.53886-7.76556,4.38017-14.50096,16.60847-23.19839,18.5823-7.18364,1.63568-16.56129-5.27665-23.92579-5.55975-9.19285-.35781-21.55091,7.39203-30.32698,4.61609-6.77078-2.13897-11.09197-12.58611-17.1039-16.36862-7.56897-4.7655-21.7475-4.01057-27.91277-10.49432-5.17835-5.44572-4.16391-17.19433-7.62794-23.86681-3.63054-6.99669-12.97476-13.37734-17.31551-20.63578-2.26065.00068-4.54359-.60267-6.61014-1.94445c3.20633,9.07487,15.44599,16.64272,19.81477,25.06482v-.00001Zm60.59306-95.1759c-3.62917,1.98956-10.14831,1.28967-13.15624,4.12853-2.42127,2.28691-2.9893,6.66617-3.96681,10.45518c1.27585.25949,2.48987.67869,3.60842,1.24372.77137-3.24708,1.39437-6.74663,3.42312-8.66194c2.78017-2.62867,8.81547-1.98174,12.17297-3.82018c3.60726-1.97765,6.50208-7.8287,10.49422-8.81547v.00001c3.67687-.90489,8.54114,2.65734,12.32856,2.70237c3.98396.04504,9.17988-3.54994,13.041-2.54678c4.12317,1.07276,7.13673,7.07531,10.85044,9.1676c1.4237.80285,3.33285,1.17608,5.27626,1.53887c1.49654-1.45026,3.18995-2.30999,4.88655-2.62323-2.94208-.68102-6.25824-.96559-8.48039-2.2182-4.0145-2.25693-7.27014-8.74854-11.72501-9.90846-4.17178-1.08128-9.78657,2.80347-14.09204,2.75235-4.09314-.04325-9.35013-3.89261-13.32138-2.91749-4.31333,1.06555-7.44314,7.3881-11.33969,9.52313l.00002-.00001ZM144.12794,212.8384c1.81655,3.50335,1.28574,9.66468,4.0027,12.51926c3.23205,3.40112,10.67126,3.00793,14.64251,5.5047c3.15341,1.98562,5.4182,7.46674,8.97266,8.58733c4.60036,1.45481,11.08411-2.60687,15.90859-2.42207c3.86116.14941,8.78,3.77465,12.55072,2.91749c4.56104-1.0341,8.09584-7.45101,12.16932-9.74725c3.79824-2.1429,10.60441-1.87946,13.64773-5.00535c3.11016-3.19666,2.40634-10.28593,4.73404-14.09204c1.92271-3.14554,7.4746-5.28845,8.58733-8.80752.75216-2.38334-.11534-5.30825-1.0044-8.19948-1.37531-.28318-2.72592-.83931-4.00225-1.72874.91952,3.08614,2.13866,6.33281,1.32676,8.90069-1.02772,3.25513-6.16633,5.23687-7.94744,8.14807-2.14962,3.52537-1.50268,10.08477-4.38112,13.041-2.81293,2.89482-9.11437,2.64915-12.62746,4.63089-3.77104,2.12914-7.04255,8.06208-11.26399,9.02429-3.48852.79024-8.03752-2.56316-11.61202-2.70237-4.46301-.17197-10.46147,3.59088-14.72385,2.24379-3.28789-1.04-5.38428-6.1131-8.30366-7.94744-3.67277-2.3134-10.55564-1.94899-13.54872-5.09357-1.67006-1.7571-2.01388-4.86392-2.54984-7.70127-.46451-1.164-.84405-2.43759-1.12258-3.82158-.01094-.02164-.02198-.04317-.03311-.0646-.58998-1.13725-1.49053-2.24088-2.50673-3.33806-2.09129.10497-4.53715-.42498-6.55779-1.46852c2.14046,2.20783,4.46425,4.35341,5.64258,6.62234l.00002.00001Zm22.40303-61.73122c-3.01495,1.65087-8.4345,1.06994-10.93103,3.43042-1.85999,1.75599-2.40413,4.99491-3.11767,7.96144.96207,1.11132,1.72345,2.40479,2.22659,3.85667c5.39556-10.1918,18.14607-15.328,25.34785-12.07984c5.35515-4.22234,12.17167-2.82596,14.25817,1.38621c3.42934-5.22588,7.95456-6.93826,11.81557-5.98247-2.36368-2.35881-4.59415-5.62016-7.39468-6.3488-3.46719-.90081-8.13301,2.32739-11.7105,2.28695-3.40101-.04044-7.76901-3.23923-11.07074-2.42667-3.58485.8861-6.18432,6.1402-9.42355,7.91608l-.00001.00001Zm8.00432,79.59463c3.82751,1.20966,9.21398-2.16929,13.22165-2.01487c3.20982.12501,7.2947,3.13628,10.42731,2.42667c3.79075-.86404,6.72848-6.19167,10.11478-8.10359c3.15467-1.77956,8.81321-1.55895,11.33915-4.15842c2.58477-2.65463,2.00384-8.54481,3.93414-11.7105c1.59939-2.61418,6.21373-4.39374,7.1366-7.31677.57656-1.82353.01252-4.02826-.65705-6.24143-5.78421,4.223-13.69606,4.44965-17.58996.90575-4.18849,5.19896-12.89787,7.10335-17.46384,3.1478-1.479,1.59743-4.73925,3.95671-7.41149,4.32256-1.19233,12.05751-8.56618,21.1066-19.242,22.65019c2.01764,2.03003,3.73367,5.31542,6.1907,6.09261h.00001Zm37.99836-75.63382c.26027-.74608.55118-1.44193.86843-2.08855-.93389-.17407-1.86308-.34701-2.72565-.57636.71141.75781,1.33879,1.65011,1.85722,2.66491ZM80.643,189.38607c-.80469,1.65625-1.96094,3.0625-3.46875,4.21875-1.51172,1.14843-3.1836,2.07031-5.01563,2.76562-1.83594.6875-3.60938,1.15234-5.32813,1.39062-2.21875.30468-4.28125.23437-6.1875-.20313-1.89844-.4375-3.74219-1.01953-5.53125-1.75.64453-2.03906,1.27343-4.20703,1.89062-6.5l.8125-.10938c4.33203-.59375,8.02343-1.73828,11.07812-3.4375c3.05078-1.69531,5.5039-3.73828,7.35937-6.125c1.85156-2.38282,3.13281-4.92969,3.84375-7.64063.70703-2.70703.8789-5.375.51562-8-.48047-3.51954-1.83594-6.02344-4.0625-7.51563-2.23047-1.48828-5.0586-2-8.48438-1.53125-3.07421.41797-5.67187,1.65625-7.79687,3.71875-2.125,2.05469-3.99219,4.94922-5.59375,8.6875-1.59375,3.74219-3.09375,8.34375-4.5,13.8125-1.16797-.71875-2.15235-1.63281-2.95313-2.75-.79297-1.11329-1.29297-2.45313-1.5-4.01563-.30469-2.21875.10156-4.03125,1.21875-5.4375c1.11328-1.41406,2.57812-2.25,4.39062-2.5.80078-.10157,1.10937-.83594.92187-2.20313-.25-1.85156-1.21485-3.26953-2.89063-4.25-1.66797-.98828-3.76172-1.3125-6.28125-.96875-3.98047.55469-7.01563,2.27344-9.10938,5.15625-2.09375,2.875-2.85156,6.40234-2.28125,10.57812.54296,3.98046,2.26562,7.23437,5.17187,9.76562c2.91406,2.52343,6.65625,4.10937,11.21875,4.76562-.19922.54296-.40235,1.10156-.60938,1.67187-.19922.5625-.39063,1.08594-.57813,1.5625-1.44922-.40625-2.96485-.70703-4.54688-.90625-1.58594-.19532-3.28907-.17188-5.10938.07812-3.17579.4375-5.74219,1.43359-7.70313,2.98437-1.96875,1.55469-3.35938,3.38672-4.17188,5.5-.82032,2.10546-1.08594,4.21484-.79688,6.32812.29297,2.11719,1.02344,4.04297,2.1875,5.78125c1.15625,1.74218,2.73437,3.07812,4.73437,4.01562c2,.92578,4.35937,1.20703,7.07812.84375c3.125-.4375,5.73437-1.70703,7.82812-3.8125c2.10156-2.10157,3.91406-4.89844,5.4375-8.39063c1.46875,1.38671,3.02343,2.68359,4.67187,3.89062c1.65625,1.21093,3.48828,2.14062,5.5,2.79687c2.01953.64843,4.21093.80859,6.57812.48437c1.45703-.20703,2.8164-.66406,4.07812-1.375c1.26953-.70704,2.51562-1.82813,3.73437-3.35938c1.22656-1.53125,2.47656-3.63281,3.75-6.3125.13894-.29143.27903-.5915.42027-.90021.49137,3.13782,1.49071,5.62701,3.00472,7.46757c1.60156,1.9375,3.6875,2.73047,6.25,2.375c2.67578-.36329,4.97265-1.76563,6.89062-4.20313c1.92578-2.44532,3.4375-5.30469,4.53125-8.57813l.28125-.04688c-.02344,3.17969.65625,5.75,2.03125,7.71875s3.36718,2.77344,5.98437,2.40625c2.125-.28906,3.89843-1.1875,5.32812-2.6875c1.28034-1.34297,2.38095-2.93694,3.30735-4.77915.03423.35356.07315.69129.11678,1.01318.21094,1.5625.86719,2.80859,1.96875,3.73437c1.11328.91796,2.54687,1.25781,4.29687,1.01562c1.76953-.23828,3.03906-.82031,3.8125-1.75.76953-.92579,1.21875-2.02344,1.34375-3.29688.13281-1.26954.11718-2.53516-.04688-3.79688l-.46875-3.40625c-.3125-2.25781-.22657-4.42578.26562-6.5.48828-2.07032,1.26562-3.80469,2.32812-5.20313c1.0625-1.39454,2.32812-2.19141,3.79687-2.39063.85156-.125,1.57031.00781,2.15625.39062.59375.38671.95312,1.00781,1.07812,1.85937.13281,1,.03515,2.25781-.29688,3.76562-.33594,1.5-.64844,3.15625-.9375,4.96875-.29297,1.80468-.3086,3.66406-.04688,5.57812.28906,2.11718,1.01953,3.89062,2.1875,5.32812c1.17578,1.42969,2.94531,1.98047,5.3125,1.65625c2.0625-.28125,3.84375-1.03516,5.34375-2.26563c1.5-1.22657,2.79687-2.72266,3.89062-4.48438.6826-1.10435,1.29522-2.22697,1.83975-3.36879.57032,1.76548,1.49774,3.25808,2.78499,4.47642c1.82031,1.71875,4.04687,2.40234,6.67187,2.04687c1.90625-.25782,3.72265-1.27344,5.45312-3.04688c1.73828-1.78125,2.9375-4.05078,3.59375-6.8125.23828-.80078.60937-1.25,1.10937-1.34375.5-.10156.79687.17969.89062.84375.22656,1.65625.10156,3.36719-.375,5.125-.48047,1.76172-1.24219,3.41797-2.28125,4.96875-1.04297,1.55468-2.28907,2.85937-3.73438,3.92187-1.44922,1.07031-3.0586,1.73437-4.82813,1.98437-2.51172.28906-4.59375-.04297-6.25-1-1.64844-.94922-2.69141-2.34375-3.14063-4.1875-.11329-.39454-.42969-.44141-.95313-.14063-.51953.30468-1.07031.90234-1.65625,1.79687-.59375.90625-1.07031,2.09375-1.4375,3.5625-.36328,1.46875-.41406,3.15625-.15625,5.0625.5,3.63281,1.99219,6.34375,4.46875,8.125c2.46875,1.78906,5.6914,2.41406,9.67187,1.875c2.875-.39844,5.34765-1.45313,7.42187-3.17188c2.07031-1.71875,3.8125-4.27344,5.21875-7.65625c1.40625-3.375,2.5625-7.76172,3.46875-13.15625.80078,1.01171,1.7539,1.44531,2.85937,1.29687c1.82031-.25,3.36328-1.00781,4.625-2.28125c1.25781-1.28125,2.34375-2.90625,3.25-4.875.33475-.72101.65745-1.46768.96791-2.24022.45941,2.68005,1.3303,4.61306,2.61565,5.80201c1.40625,1.29296,3.11328,1.79687,5.125,1.51562c1.96875-.26953,3.6289-1.07031,4.98437-2.40625c1.36328-1.33203,2.5039-2.94531,3.42187-4.84375.91406-1.90625,1.66015-3.78906,2.23437-5.65625-.01172,1.125.05078,2.16797.1875,3.125.75,5.49219,3.28906,7.9375,7.625,7.34375c2.0625-.28125,3.84375-1.03516,5.34375-2.26563c1.5-1.22656,2.79687-2.72656,3.89062-4.5c1.09375-1.76954,2.00781-3.58594,2.75-5.45313.13239-.33625.26102-.6686.38586-.99708.52156,2.85112,1.48671,5.13631,2.90093,6.85555c1.60156,1.9375,3.6875,2.73047,6.25,2.375c2.67578-.36329,4.97265-1.76563,6.89062-4.20313c1.92578-2.44532,3.4375-5.30469,4.53125-8.57813l.28125-.04688c-.02344,3.17969.65625,5.75,2.03125,7.71875s3.36719,2.77344,5.98438,2.40625c2.125-.28906,3.89843-1.1875,5.32812-2.6875c1.4375-1.50781,2.64843-3.33203,3.64062-5.46875.64571-1.39351,1.23806-2.81704,1.77814-4.27059.01998.1674.04126.33408.06385.50004.38672,2.82421,1.48828,5.10156,3.3125,6.82812c1.82031,1.71875,4.04687,2.40234,6.67187,2.04687c1.90625-.25782,3.72265-1.27344,5.45312-3.04688c1.73828-1.78125,2.9375-4.05078,3.59375-6.8125.23828-.80078.60937-1.25,1.10937-1.34375.5-.10156.79687.17969.89062.84375.22656,1.65625.10156,3.36719-.375,5.125-.48047,1.76172-1.24219,3.41797-2.28125,4.96875-1.04297,1.55468-2.28907,2.85937-3.73438,3.92187-1.44922,1.07031-3.0586,1.73437-4.82813,1.98437-2.51172.28906-4.59375-.04297-6.25-1-1.64844-.94922-2.69141-2.34375-3.14063-4.1875-.11329-.39454-.42969-.44141-.95313-.14063-.51953.30468-1.07031.90234-1.65625,1.79687-.59375.90625-1.07031,2.09375-1.4375,3.5625-.36328,1.46875-.41406,3.15625-.15625,5.0625.5,3.63281,1.99219,6.34375,4.46875,8.125c2.46875,1.78906,5.6914,2.41406,9.67187,1.875c2.875-.39844,5.34765-1.45313,7.42187-3.17188c2.07031-1.71875,3.8125-4.27344,5.21875-7.65625c1.40625-3.375,2.5625-7.76172,3.46875-13.15625.80078,1.01171,1.7539,1.44531,2.85937,1.29687c1.82031-.25,3.36328-1.00781,4.625-2.28125c1.25781-1.28125,2.34375-2.90625,3.25-4.875.69005-1.48625,1.32889-3.08159,1.91485-4.78769.34185.89743.75072,1.7517,1.22749,2.56282c1.25,2.10547,2.9375,3.71094,5.0625,4.8125c2.125,1.09375,4.69531,1.4375,7.71875,1.03125c4.38281-.60157,8.33203-2.77344,11.84375-6.51563c3.51953-3.73828,6.51953-8.90625,9-15.5.23828-.53907.10937-1.03516-.39063-1.48438-.5-.44532-1.08985-.71094-1.76563-.79688-.67969-.09375-1.17188.1875-1.48438.84375-1.36719,2.86718-3.33594,5.14062-5.90625,6.82812-2.5625,1.67968-5.13282,2.69531-7.70313,3.04687-2.16797.29297-4.0625.21094-5.6875-.25-1.625-.46875-2.52735-1.35938-2.70313-2.67188-.07422-.50781.03125-.84375.3125-1c.28906-.16406.57031-.19531.84375-.09375.91406.38672,1.89062.58594,2.92187.59375c1.03906.01172,2.08593-.05078,3.14062-.1875c2.46875-.34375,4.52343-1.22656,6.17187-2.65625c1.64453-1.42578,2.84765-3.11328,3.60937-5.0625.75781-1.95703,1.01953-3.84375.78125-5.65625-.23047-1.66406-.79688-3.17578-1.70313-4.53125-.90625-1.36328-2.16797-2.38281-3.78125-3.0625-1.60547-.67578-3.58594-.85156-5.9375-.53125-3.08594.41796-5.75,1.47656-8,3.17187-2.25,1.6875-4.07813,3.77344-5.48438,6.25-1.40625,2.46875-2.37891,5.11719-2.92188,7.9375-.21814,1.13817-.36465,2.26738-.43898,3.38711-.78686,1.41432-1.64707,2.7858-2.57836,4.11901-1.10547,1.58593-2.24219,2.45312-3.40625,2.60937-.86719.11718-1.60157-.17969-2.20313-.89063-.60547-.70704-.79297-2.09766-.5625-4.17188.63281-3.22656,1.28515-5.875,1.95312-7.9375.66406-2.0625,1.20312-3.75,1.60937-5.0625.41406-1.32032.5625-2.42969.4375-3.32813-.11719-.85157-.39844-1.50391-.84375-1.95313-.44922-.45704-1.17969-.61719-2.1875-.48438-1.15625.16796-2.03125.53906-2.625,1.10937-.58594.5625-1.10938,1.12109-1.57813,1.67187-.46875.54296-1.13282.87109-1.98438.98437-.5.0625-.92188-.01953-1.26563-.25-.33594-.23829-.7461-.52344-1.23438-.85938-.48047-.34375-1.15625-.59375-2.03125-.75-.86719-.16407-2.05469-.14844-3.5625.04687-3.23047.44922-5.94922,1.71094-8.15625,3.78125-2.19922,2.0625-3.92969,4.58594-5.1875,7.5625-.95115,2.24494-1.65212,4.56583-2.09954,6.95928-.48781.03144-.85882.32418-1.11745.87377-.60547,1.3125-1.33985,2.375-2.20313,3.1875-.85547.8125-1.9375,1.30859-3.25,1.48437-1.65625.23047-2.75-.36328-3.28125-1.78125-.53125-1.41407-.35547-3.59766.53125-6.54688.5625-2.32031,1.13281-4.22656,1.71875-5.71875.58203-1.5.78125-2.95313.59375-4.35938-.11719-.85157-.39844-1.50391-.84375-1.95313-.44922-.45704-1.17969-.61719-2.1875-.48438-1.15625.16796-2.03125.53906-2.625,1.10937-.58594.5625-1.10938,1.12109-1.57813,1.67187-.46875.54296-1.13282.87109-1.98438.98437-.5.0625-.92188-.01953-1.26563-.25-.33594-.23829-.7461-.52344-1.23438-.85938-.48047-.34375-1.15625-.59375-2.03125-.75-.86719-.16407-2.05469-.14844-3.5625.04687-2.61719.36718-4.88282,1.25781-6.79688,2.67187-1.90625,1.40625-3.51172,3.16406-4.8125,5.26562-1.30469,2.10547-2.3086,4.38672-3.01563,6.84375-.49789,1.70473-.8702,3.40947-1.11821,5.11681-.33966.11752-.6094.38097-.80921.79034-.60547,1.21093-1.2461,2.23437-1.92188,3.07812-.66797.83594-1.57813,1.33594-2.73438,1.5-1.02344.13672-1.96875-.08203-2.84375-.65625-.86719-.58204-1.39844-1.57813-1.59375-2.98438-.16797-1.25781-.08985-2.72656.23437-4.40625.33203-1.6875.67578-3.39063,1.03125-5.10938.35156-1.71875.4375-3.28125.25-4.6875-.15625-1.10156-.46875-1.85156-.9375-2.25-.46094-.40625-1.07032-.55469-1.82813-.45313-1.90625.26172-3.49219,1.8125-4.75,4.65625-1.25,2.84375-2.32032,6.83594-3.20313,11.96875l-.04688.3125c-.38672,1.96094-1.07813,3.42969-2.07813,4.40625-.99219.98047-2.16797,1.5625-3.53125,1.75-1.26172.17968-2.14844-.00391-2.65625-.54688-.51172-.55079-.83985-1.35938-.98438-2.42188-.21094-1.50781-.14844-3.09375.1875-4.75.34375-1.66407.6914-3.36719,1.04687-5.10938.35156-1.75.42187-3.42578.20312-5.03125-.28125-2.00781-1.21094-2.90625-2.78125-2.6875-2.10547.29297-3.85547,2.02344-5.25,5.1875-1.38672,3.15625-2.57813,7.625-3.57813,13.40625-.00336.02089-.0067.04177-.01003.06263-.85647,1.58292-1.8039,3.11226-2.83916,4.59432-1.10547,1.58593-2.24219,2.45312-3.40625,2.60937-.86719.11718-1.60157-.17969-2.20313-.89063-.60547-.70704-.79297-2.09766-.5625-4.17188.63281-3.22656,1.28515-5.875,1.95312-7.9375.66406-2.0625,1.20312-3.75,1.60937-5.0625.41406-1.32032.5625-2.42969.4375-3.32813-.11719-.85157-.39844-1.50391-.84375-1.95313-.44922-.45704-1.17969-.61719-2.1875-.48438-1.15625.16796-2.03125.53906-2.625,1.10937-.58594.5625-1.10938,1.12109-1.57813,1.67187-.46875.54296-1.13282.87109-1.98438.98437-.5.0625-.92188-.01953-1.26563-.25-.33594-.23829-.7461-.52344-1.23438-.85938-.48047-.34375-1.15625-.59375-2.03125-.75-.86719-.16407-2.05469-.14844-3.5625.04687-3.23047.44922-5.94922,1.71094-8.15625,3.78125-2.19922,2.0625-3.92969,4.58594-5.1875,7.5625-1.25782,2.96875-2.07813,6.07031-2.45313,9.29687-.02887.24875-.05548.49625-.07982.74251-.27922.43297-.56503.83168-.85742,1.19674-.67969.84375-1.59375,1.34375-2.75,1.5-2.41797.33594-3.80469-.75781-4.15625-3.28125-.16797-1.25782-.1211-2.42969.14062-3.51563.25781-1.09375.51562-2.20703.76562-3.34375.25-1.13282.28515-2.35938.10937-3.67188-.26172-1.90625-1.03907-3.46094-2.32813-4.67188-1.29297-1.20703-3.10157-1.65625-5.42188-1.34375-1.65625.23047-3.19532.82422-4.60938,1.78125-1.40625.96093-2.71485,2.21484-3.92188,3.76562-1.04297,1.375-1.94532,1.9375-2.70313,1.6875-.75-.25-1.23047-1.10938-1.4375-2.57813-.10547-.75781-.35938-1.40625-.76563-1.9375s-1.10938-.72656-2.10938-.59375c-.96875.13672-1.88672,1.08594-2.75,2.84375-.85547,1.75-1.6211,3.99609-2.29688,6.73437-.67578,2.74218-1.23828,5.65234-1.6875,8.73437-.06231.45568-.12059.90629-.17483,1.35182-.35973.51523-.75012.97099-1.17117,1.36728-.85547.8125-1.9375,1.30859-3.25,1.48437-1.65625.23047-2.75-.36328-3.28125-1.78125-.53125-1.41407-.35547-3.59766.53125-6.54688.5625-2.32031,1.13281-4.22656,1.71875-5.71875.58203-1.5.78125-2.95313.59375-4.35938-.11719-.85157-.39844-1.50391-.84375-1.95313-.44922-.45704-1.17969-.61719-2.1875-.48438-1.15625.16796-2.03125.53906-2.625,1.10937-.58594.5625-1.10938,1.12109-1.57813,1.67187-.46875.54296-1.13282.87109-1.98438.98437-.5.0625-.92188-.01953-1.26563-.25-.33594-.23829-.7461-.52344-1.23438-.85938-.48047-.34375-1.15625-.59375-2.03125-.75-.86719-.16407-2.05469-.14844-3.5625.04687-2.61719.36718-4.88282,1.25781-6.79688,2.67187-1.90625,1.40625-3.51172,3.16406-4.8125,5.26562-1.30469,2.10547-2.3086,4.38672-3.01563,6.84375-.34623,1.18545-.63173,2.37091-.85693,3.55724-.0886.11077-.16855.24111-.23993.39102l.00064.00065ZM66.23613,168.51043c.85156-.11328,1.50781.09375,1.96875.625.45703.52344.73437,1.15625.82812,1.90625.17578,1.26172-.08985,2.69922-.79688,4.3125-.69922,1.60547-1.82032,3.0625-3.35938,4.375-1.54296,1.3125-3.53906,2.21484-5.98437,2.70312.0625-.3125.1289-.59766.20312-.85938c1.05078-3.84375,2.03125-6.6875,2.9375-8.53125s1.71875-3.03906,2.4375-3.59375c.71875-.5625,1.30468-.875,1.76562-.9375l.00002.00001ZM40.59551,200.47919c-.8125.11719-1.44922-.00781-1.90625-.375-.46094-.375-.73047-.84375-.8125-1.40625-.07422-.53907.08593-1.05469.48437-1.54688.39453-.48829,1.01953-.79688,1.875-.92188.70703-.09375,1.39843-.00391,2.07812.26562.67578.26171,1.35937.65234,2.04687,1.17187-1.15625,1.69922-2.41407,2.63672-3.76563,2.8125l.00002.00002Zm54.64373-7.12012c-1.15625.15625-2.125-.08203-2.90625-.71875-.78125-.63281-1.26172-1.58203-1.4375-2.84375-.14844-1.10157-.03125-2.23438.34375-3.39063.38281-1.15625,1.0039-2.14844,1.85937-2.98438.86328-.84375,1.95312-1.35156,3.26562-1.53125c1.20703-.16407,2.21093.05859,3.01562.67187.80078.60546,1.28906,1.53906,1.46875,2.79687.14453,1.0625.00781,2.17187-.40625,3.32812-.40625,1.15625-1.04688,2.18359-1.92188,3.07812-.875.88672-1.96875,1.41797-3.28125,1.59375l.00002.00003Zm75.15825-10.03335c-1.41797.19922-2.48438-.0625-3.20313-.78125-.71094-.71875-1.14063-1.63281-1.29688-2.75-.14844-1.10157-.03125-2.23438.34375-3.39063.38281-1.15625.99218-2.14844,1.82812-2.98438.83203-.84375,1.85156-1.34375,3.0625-1.5c1.46875-.20704,2.58203.03906,3.34375.73437.75781.69921,1.21875,1.60156,1.375,2.70312.14453,1.0625.00781,2.17187-.40625,3.32812-.40625,1.15625-1.03907,2.17969-1.89063,3.0625-.84375.88671-1.89844,1.41406-3.15625,1.57812l.00002.00003Zm76.49536-11.22036c-1.15625.15625-2.125-.08203-2.90625-.71875-.78125-.63281-1.26172-1.58203-1.4375-2.84375-.14844-1.10157-.03125-2.23438.34375-3.39063.38281-1.15625,1.0039-2.14844,1.85937-2.98438.86328-.84375,1.95312-1.35156,3.26562-1.53125c1.20703-.16407,2.21093.05859,3.01562.67187.80078.60546,1.28906,1.53906,1.46875,2.79687.14453,1.0625.00781,2.17187-.40625,3.32812-.40625,1.15625-1.04688,2.18359-1.92188,3.07812-.875.88672-1.96875,1.41797-3.28125,1.59375l.00002.00003Zm39.92011-4.9893c-1.41797.19922-2.48438-.0625-3.20313-.78125-.71094-.71875-1.14063-1.63281-1.29688-2.75-.14844-1.10157-.03125-2.23438.34375-3.39063.38281-1.15625.99218-2.14844,1.82812-2.98438.83203-.84375,1.85156-1.34375,3.0625-1.5c1.46875-.20704,2.58203.03906,3.34375.73437.75781.69921,1.21875,1.60156,1.375,2.70312.14453,1.0625.00781,2.17187-.40625,3.32812-.40625,1.15625-1.03907,2.17969-1.89063,3.0625-.84375.88671-1.89844,1.41406-3.15625,1.57812l.00002.00003Zm37.9861-12.17801c-1.21094.16796-2.14844-.02344-2.8125-.57813-.65625-.55078-1.04297-1.22656-1.15625-2.03125-.13672-1,.16015-2.00781.89062-3.03125.72656-1.03125,1.82031-1.64453,3.28125-1.84375c1.15625-.15625,2.0664.03125,2.73437.5625.66406.52344,1.05468,1.21094,1.17187,2.0625.13281.96094-.15235,1.96094-.85938,3-.69922,1.04296-1.78125,1.66406-3.25,1.85937l.00002.00001ZM150.2922,127.7795l-.75-1.15625-6.35937-10.21875-1.90625-3.34375-2.59375,1.625l2.17188,3.17188l6.35938,10.21875l1.95313,3.46875l9.53125-5.9375-1.03125-2.40625-7.37502,4.57812Zm23.40137-9.61007c.71875-2.05078.57813-4.72266-.42187-8.01562-.98047-3.25781-2.32812-5.53125-4.04687-6.8125-1.71094-1.28125-3.72656-1.57031-6.04687-.875-2.35547.71094-3.88281,2.07031-4.59375,4.07813-.70703,2.01172-.57031,4.64844.40625,7.90625c1,3.29297,2.35156,5.60156,4.0625,6.92188c1.70703,1.3125,3.73828,1.61719,6.09375.90625c2.32031-.69531,3.83594-2.06641,4.54688-4.10937l-.00002-.00002Zm-8.07813,1.59375c-.79297-.30078-1.5-.94531-2.125-1.9375-.625-.98828-1.21484-2.39062-1.76562-4.20312-.52344-1.75-.79297-3.19531-.8125-4.34375-.02344-1.15625.21875-2.07031.71875-2.75.50781-.6875,1.28125-1.1875,2.3125-1.5c1.53906-.45703,2.82813-.22656,3.85938.6875c1.03906.90625,1.95313,2.66406,2.73438,5.26563.55078,1.8125.83203,3.30469.84375,4.46875.00781,1.16797-.23437,2.09375-.73437,2.78125-.49219.6875-1.25,1.18359-2.28125,1.48438-1.04297.32422-1.96094.33984-2.75.04688l-.00002-.00002Zm26.34867-4.67091l-1.73437-2.35937c1.13281-.51953,2.03516-1.34375,2.70313-2.46875.66406-1.125.98828-2.48437.96875-4.07812-.01172-2.23828-.59375-3.95703-1.75-5.15625-1.14844-1.19531-2.67969-1.78906-4.59375-1.78125l-6.95312.0625.20313,3.84375.09375,12.03125-.14062,3.96875l3.17188-.03125-.29687-3.96875-.01562-1.84375l3.75-.03125l1.34375,1.84375l2.48438,3.9375l4.03125-.03125-3.26567-3.93751Zm-8.4375-13.21875l3.25-.01562c1.47656-.00781,2.55469.32813,3.23438,1.01563.67578.6875,1.01953,1.79688,1.03125,3.32813.01953,1.55469-.3125,2.6875-1,3.40625-.67969.71875-1.75781,1.08594-3.23437,1.09375l-3.20312.01563-.07814-8.84377Zm15.76101,18.22416l3,.625.64063-3.92187l2.42188-11.78125.92188-3.73437-3-.625-.59375,3.8125-2.42187,11.78125-.96877,3.84374Zm16.0499-18.06204c-.52344.19922-.875.5625-1.0625,1.09375-.1875.52344-.14844,1.02344.125,1.5.26953.46875.69531.80859,1.28125,1.01563l.04688.01563c-.14844.35547-.40625.71484-.78125,1.07813-.375.36719-.73437.58984-1.07812.67188l-.09375.09375.51563.92188c.85156-.17578,1.6875-.61719,2.5-1.32812.82031-.70703,1.375-1.44531,1.65625-2.21875.21875-.625.20313-1.19141-.04687-1.70312-.25-.50781-.69922-.87891-1.34375-1.10937-.625-.21875-1.19922-.22656-1.71875-.03125l-.00002-.00004Zm10.92062,27.82359c1.55078-.25,2.79688-1.15234,3.73438-2.70312.53125-.875.8125-1.71094.84375-2.5.03125-.78125-.19531-1.59766-.67187-2.45312-.48047-.86328-1.26562-1.84766-2.35937-2.95312-.84375-.86328-1.45312-1.58203-1.82812-2.15625-.375-.57031-.57422-1.09766-.59375-1.57812-.02344-.48828.12891-1.00391.45313-1.54687.47656-.78906,1.125-1.22266,1.9375-1.29687.8125-.07031,1.76953.22656,2.875.89063.78906.48047,1.48438,1.13281,2.07813,1.95313.59375.8125.96094,1.60938,1.10938,2.39063l.39063.125l1.6875-2.01562c-.26172-.89453-.76562-1.78125-1.51562-2.65625-.75-.88281-1.63672-1.63281-2.65625-2.25-1.71875-1.03906-3.33984-1.41016-4.85937-1.10937-1.51172.29297-2.72656,1.19922-3.64062,2.71875-.8125,1.34375-1.07812,2.61719-.79687,3.8125.28125,1.19922,1.14453,2.55859,2.59375,4.07813.95703.96875,1.64453,1.75781,2.0625,2.35938.42578.60547.64844,1.13281.67188,1.57813.03125.44531-.10547.92188-.40625,1.42188-.42969.72656-1.07812,1.11328-1.95312,1.15625-.875.05078-1.87109-.25781-2.98437-.92187-1.77344-1.0625-3.07422-2.84375-3.90625-5.34375l-.375-.09375-1.04687,2.5c.34375,1.21875.85156,2.25391,1.53125,3.10938.6875.85156,1.59375,1.61719,2.71875,2.29688c1.72656,1.03906,3.36328,1.4375,4.90625,1.1875l-.00008-.00009ZM174.18373,269.807l.9375-3.46875-6.23437-1.6875l3.79688-13.875-3.82812-1.04687-4.73437,17.34375l10.06248,2.73437Zm12.75984-5.378l2.34375-6.375l2.20313,6.42188-4.54688-.04688Zm4.09375-11.0625l-3.35937-.04687-7.51562,17.90625l4.26563.04688l1.34375-3.60937l6.84375.07813l1.25,3.64063l4.26563.04688-7.09377-18.06253Zm20.57325,11.03927c-.3125.51172-.76172.84375-1.34375,1l-2.40625.625-1.09375-4.20312l2.40625-.625c.58203-.15625,1.14063-.07812,1.67188.23438s.86719.75,1.01563,1.3125c.15625.58594.07031,1.13672-.25,1.65625l-.00001-.00001Zm-3.07812-7.01563c-.29297.5-.71094.82031-1.25.95313l-1.32812.34375-1.0625-4.03125l1.32813-.34375c.53906-.13281,1.0625-.0625,1.5625.21875s.82031.70313.96875,1.26563c.14453.55469.07031,1.08594-.21875,1.59375l-.00001-.00001Zm5.46875,1.8125c-.88672-.58203-1.84375-.85937-2.875-.82812.58203-.44531.97266-1.03516,1.17188-1.76562.19531-.73828.17969-1.55078-.04687-2.4375-.21875-.8125-.61719-1.48828-1.1875-2.03125-.5625-.55078-1.26172-.92969-2.09375-1.14062-.82422-.20703-1.73047-.17969-2.71875.07813l-5.98437,1.54688l4.53125,17.40625l7.03125-1.82812c1.66406-.4375,2.83594-1.22656,3.51563-2.375.6875-1.15625.83594-2.48437.45313-3.98437-.3125-1.1875-.91406-2.06641-1.79687-2.64062l-.00003-.00004Z" transform="translate(-.8043-12.064499)" fill="#ffecdb" stroke-width="5"/></svg>