<svg xmlns="http://www.w3.org/2000/svg" xmlns:xlink="http://www.w3.org/1999/xlink" width="" zoomAndPan="magnify" viewBox="0 0 375 374.999991" height="500" preserveAspectRatio="xMidYMid meet" version="1.0"><defs><g/></defs><path stroke-linecap="butt" transform="matrix(0.513, 0, 0, 0.513, 59.137501, 59.137496)" fill-opacity="1" fill="#FFECDB" fill-rule="nonzero" stroke-linejoin="miter" d="M 194.633296 33.464313 C 210.867459 29.466688 232.348028 45.198293 249.061906 45.388656 C 266.666683 45.586633 289.609241 29.710353 306.642928 34.142005 C 324.856867 38.870624 338.159439 65.392007 354.553506 74.628424 C 369.691178 83.149075 397.248136 80.697199 409.438988 93.070798 C 421.568923 105.383482 418.477426 132.902368 426.982848 147.948665 C 435.495885 163.02542 460.342073 174.690869 464.994547 191.35906 C 470.004903 209.314105 454.318986 233.9014 454.197153 252.541752 C 454.075321 270.588171 469.304367 294.71098 463.867597 311.919801 C 459.329342 326.303635 436.645678 335.045108 428.779876 347.913651 C 419.284566 363.462507 422.147626 392.428152 409.438988 405.494674 C 397.012086 418.264229 369.196234 417.182966 353.677836 425.932053 C 337.024875 435.32076 322.587739 461.537562 303.947387 465.771237 C 288.543207 469.273918 268.448481 454.46367 252.663575 453.854509 C 232.949575 453.085442 206.466265 469.692716 187.658393 463.745774 C 173.145113 459.161831 163.885853 436.767519 150.994465 428.658052 C 134.767917 418.446977 104.378356 420.061256 91.167159 406.164752 C 80.065184 394.491688 82.235323 369.310461 74.818778 355.010387 C 65.323468 336.720303 37.621834 320.394765 33.357701 300.223894 C 30.083456 284.690267 45.396262 264.595542 45.510479 248.719261 C 45.624697 232.13483 29.641814 210.844624 33.586136 194.739908 C 37.857884 177.287422 62.978195 164.357962 72.047092 148.854793 C 81.694692 132.354122 80.651503 102.368131 94.540392 89.248308 C 106.830232 77.63616 133.473448 80.499221 148.298924 72.374525 C 164.213277 63.655896 177.005676 37.804591 194.633296 33.464313 Z M 152.814336 80.286014 C 138.651324 88.045213 113.195974 85.311599 101.454379 96.405959 C 88.182266 108.939464 89.187383 137.585299 79.966196 153.347362 C 71.308483 168.157609 47.307507 180.515979 43.226122 197.18417 C 39.456934 212.573121 54.724052 232.911512 54.609834 248.757334 C 54.503231 263.925463 39.875732 283.121676 43.005301 297.962381 C 47.079071 317.227124 73.547153 332.821667 82.61605 350.304611 C 89.697556 363.965066 87.626406 388.019343 98.233436 399.17462 C 110.858315 412.446733 139.884876 410.908599 155.39566 420.662803 C 167.700729 428.406773 176.548804 449.803582 190.422465 454.181933 C 208.385125 459.862367 233.688184 444.001316 252.518899 444.73231 C 267.595655 445.311014 286.799482 459.466412 301.51074 456.116022 C 319.321109 452.07271 333.11101 427.028544 349.017748 418.058636 C 363.850839 409.69789 390.425524 410.725851 402.296565 398.527385 C 414.434115 386.054797 411.700501 358.376006 420.777012 343.520072 C 428.284932 331.230232 449.963479 322.8771 454.296142 309.140501 C 459.481632 292.693131 444.945508 269.651585 445.052111 252.412305 C 445.173944 234.601936 460.159325 211.111133 455.36979 193.963227 C 450.922909 178.033645 427.188441 166.885983 419.05613 152.486921 C 410.931434 138.110701 413.885869 111.817754 402.296565 100.053316 C 390.646345 88.235576 364.322939 90.580849 349.86296 82.43331 C 334.199887 73.615692 321.491248 48.282174 304.092063 43.759148 C 287.819828 39.525473 265.897616 54.693603 249.08475 54.50324 C 233.10948 54.320491 212.588341 39.297037 197.077558 43.111913 C 180.241848 47.261828 168.020539 71.955726 152.814336 80.286014 Z M 152.814336 80.286014 " stroke="#FFECDB" stroke-width="5" stroke-opacity="1" stroke-miterlimit="4"/><path stroke-linecap="butt" transform="matrix(0.490551, 0, 0, 0.490551, 64.737408, 64.739967)" fill-opacity="1" fill="#FFECDB" fill-rule="nonzero" stroke-linejoin="miter" d="M 197.658945 45.385567 C 212.99565 41.611113 233.293294 56.470039 249.08389 56.653188 C 265.710598 56.8443 287.393801 41.84204 303.48699 46.022606 C 320.694996 50.497802 333.260583 75.55731 348.756549 84.276776 C 363.058066 92.335315 389.089058 90.018087 400.611494 101.707746 C 412.070227 113.341664 409.147812 139.340804 417.182462 153.554729 C 425.233038 167.800506 448.699949 178.821274 453.103478 194.572055 C 457.83349 211.533209 443.014379 234.769193 442.902897 252.375349 C 442.783452 269.432058 457.172563 292.222116 452.036439 308.482527 C 447.752354 322.067376 426.316003 330.32499 418.88654 342.484465 C 409.912258 357.176169 412.619673 384.544941 400.611494 396.887565 C 388.866094 408.951484 362.58825 407.932223 347.920435 416.205762 C 332.193544 425.076525 318.552954 449.841402 300.938835 453.83882 C 286.390465 457.151421 267.398751 443.152497 252.484083 442.579162 C 233.866629 441.85453 208.838973 457.54957 191.065595 451.927704 C 177.353338 447.595841 168.60202 426.438195 156.426619 418.777806 C 141.097876 409.12667 112.383359 410.655563 99.897402 397.524604 C 89.410153 386.495872 91.464603 362.702479 84.449215 349.189297 C 75.482896 331.909623 49.308571 316.485325 45.287264 297.429907 C 42.181701 282.754129 56.650441 263.762414 56.761923 248.768117 C 56.873405 233.096967 41.767626 212.982471 45.494302 197.765211 C 49.531534 181.273873 73.269187 169.058657 81.837356 154.406768 C 90.954972 138.82321 89.959599 110.490917 103.090558 98.092552 C 114.692625 87.127524 139.871577 89.826976 153.878464 82.15066 C 168.920539 73.908972 181.008347 49.486503 197.658945 45.385567 Z M 198.837467 161.469934 C 191.487633 165.499203 178.285007 164.081793 172.193325 169.831066 C 165.305345 176.336823 165.822939 191.203713 161.045149 199.373733 C 156.546064 207.065975 144.099921 213.476176 141.981768 222.116013 C 140.022874 230.102885 147.946042 240.653838 147.890301 248.871636 C 147.83456 256.747026 140.245837 266.708718 141.870286 274.40096 C 143.980476 284.402466 157.708659 292.492857 162.414782 301.554732 C 166.09368 308.64975 165.018677 321.127744 170.521099 326.90887 C 177.066671 333.79685 192.132635 333.000552 200.175248 338.057046 C 206.56156 342.078353 211.148238 353.178751 218.346775 355.448201 C 227.663465 358.394505 240.794424 350.168744 250.565004 350.543004 C 258.384654 350.845597 268.346346 358.187467 275.982846 356.451537 C 285.219907 354.357273 292.378628 341.361684 300.628279 336.711302 C 308.320521 332.371476 322.104444 332.904996 328.267793 326.574425 C 334.566513 320.108483 333.141139 305.743261 337.855225 298.035093 C 341.749123 291.664707 352.992856 287.324881 355.24638 280.198011 C 357.937868 271.669657 350.38896 259.717219 350.452664 250.766826 C 350.508405 241.529766 358.288239 229.346402 355.803789 220.443787 C 353.494523 212.186173 341.183752 206.405047 336.963371 198.927806 C 332.74299 191.474454 334.279845 177.833864 328.267793 171.726256 C 322.223889 165.594759 308.567373 166.813096 301.066243 162.584752 C 292.936037 158.013999 286.342687 144.867114 277.320628 142.518034 C 268.871903 140.328214 257.500763 148.195641 248.781296 148.092123 C 240.491831 148.00453 229.845323 140.208769 221.80271 142.183589 C 213.067317 144.341558 206.728783 157.146034 198.837467 161.469934 Z M 198.837467 161.469934 " stroke="#FFECDB" stroke-width="5" stroke-opacity="1" stroke-miterlimit="4"/><path stroke-linecap="butt" transform="matrix(0.46329, 0, 0, 0.46329, 71.514141, 71.514648)" fill="none" stroke-linejoin="miter" d="M 223.405255 148.506802 C 230.976777 146.643432 240.993445 153.978871 248.792619 154.071618 C 256.996506 154.164365 267.696129 146.761474 275.64707 148.827201 C 284.137629 151.036264 290.343242 163.3969 297.990648 167.705416 C 305.047846 171.685102 317.897511 170.538413 323.580368 176.305586 C 329.237931 182.047464 327.796138 194.888697 331.767392 201.903737 C 335.738647 208.935641 347.323581 214.373983 349.490487 222.147862 C 351.834455 230.52038 344.515879 241.987273 344.456858 250.68019 C 344.406269 259.103297 351.505625 270.35097 348.967732 278.377795 C 346.851415 285.080868 336.269834 289.161733 332.602115 295.156557 C 328.175557 302.416112 329.50774 315.923437 323.580368 322.011008 C 317.787901 327.972106 304.811763 327.466214 297.577502 331.547079 C 289.812055 335.931479 283.075256 348.148779 274.382339 350.13019 C 267.198668 351.757477 257.831228 344.852047 250.470495 344.565375 C 241.280118 344.21125 228.927913 351.959834 220.150681 349.185858 C 213.380156 347.044247 209.063208 336.59757 203.05152 332.820241 C 195.48843 328.056422 181.315013 328.806828 175.151558 322.331407 C 169.974594 316.884633 170.986378 305.139499 167.521016 298.470152 C 163.094458 289.937434 150.17734 282.323755 148.187497 272.922589 C 146.661389 265.679897 153.802902 256.304026 153.853491 248.901135 C 153.912512 241.169414 146.459032 231.237061 148.297107 223.72456 C 150.28695 215.588125 162.006789 209.551143 166.23099 202.325314 C 170.733432 194.627319 170.244403 180.647828 176.728256 174.526531 C 182.453271 169.113483 194.881359 170.445666 201.795221 166.659905 C 209.223407 162.587472 215.184505 150.538803 223.405255 148.506802 Z M 223.405255 148.506802 " stroke="#FFECDB" stroke-width="5" stroke-opacity="1" stroke-miterlimit="4"/><path stroke-linecap="butt" transform="matrix(0.743078, -0.101663, 0.101663, 0.743078, 26.186278, 149.820254)" fill="none" stroke-linejoin="miter" d="M 64.079982 62.150422 C 64.62689 61.342095 65.3183 61.052939 66.164532 61.284366 C 67.010764 61.515793 67.721315 61.970472 68.301346 62.649109 C 68.876216 63.32704 69.003992 64.006885 68.669192 64.686526 C 65.958527 69.898447 63.51921 74.164461 61.350534 77.489728 C 59.181859 80.814995 57.148632 83.380779 55.245694 85.186374 C 53.340419 86.970622 51.487221 88.220539 49.686805 88.930965 C 47.89671 89.642803 46.018337 90.000867 44.052393 89.999999 C 40.871837 90.001175 38.011035 89.394247 35.463417 88.188832 C 32.928943 86.964187 30.682672 85.400479 28.714285 83.496296 C 26.745192 81.597273 24.916889 79.591348 23.227964 77.488841 C 20.579143 81.826072 17.677877 85.203559 14.514553 87.614731 C 11.373282 90.018406 7.69819 91.213567 3.497481 91.217106 C -0.161131 91.21596 -3.222644 90.423867 -5.686351 88.835667 C -8.1707 87.244644 -10.020568 85.204227 -11.244865 82.702684 C -12.47291 80.190115 -13.083958 77.50963 -13.083169 74.660525 C -13.086128 71.800392 -12.357742 69.050831 -10.899422 66.422163 C -9.443439 63.772147 -7.264954 61.60473 -4.374287 59.918499 C -1.491823 58.215375 2.078498 57.363346 6.352156 57.36453 C 8.781381 57.360442 11.030332 57.636588 13.100419 58.182646 C 15.170507 58.728705 17.122781 59.405837 18.957243 60.214043 C 19.288025 59.602192 19.636187 58.94015 20.001023 58.233078 C 20.382752 57.517803 20.745471 56.826212 21.090591 56.147983 C 15.187171 54.457164 10.535433 51.686461 7.146404 47.832127 C 3.770519 43.958563 2.083642 39.34356 2.081319 33.981253 C 2.083334 28.356697 3.716777 23.833237 6.992675 20.407124 C 10.289213 16.983835 14.613829 15.267743 19.97543 15.27058 C 23.350446 15.269725 26.058455 16.07128 28.094298 17.674537 C 30.126391 19.266768 31.144701 21.314324 31.141947 23.831979 C 31.145365 25.651318 30.605684 26.560514 29.533222 26.560978 C 27.083356 26.562242 24.987561 27.395218 23.250289 29.065773 C 21.530617 30.722965 20.672235 33.03945 20.669277 36.01968 C 20.6714 38.117455 21.093506 39.988818 21.936301 41.628611 C 22.7974 43.249881 23.93845 44.630839 25.35945 45.771484 C 28.206948 38.790954 31.02015 32.983266 33.799055 28.348421 C 36.580078 23.698095 39.559505 20.210394 42.733586 17.87429 C 45.928309 15.54101 49.583683 14.374693 53.704871 14.376044 C 58.3203 14.376675 61.969712 15.559355 64.653104 17.924083 C 67.33063 20.293266 68.67386 23.84668 68.670354 28.598394 C 68.672082 32.120722 67.952516 35.612705 66.512362 39.069185 C 65.087689 42.527783 62.939269 45.666574 60.057488 48.478987 C 57.180867 51.292106 53.570987 53.54756 49.237463 55.251919 C 44.900897 56.940092 39.822753 57.785591 33.998577 57.782549 L 32.884127 57.782526 C 31.655093 60.694893 30.433876 63.434853 29.210156 66.000995 C 31.441535 67.289309 33.77644 68.397284 36.209711 69.324212 C 38.65542 70.237072 41.379769 70.688653 44.371026 70.687863 C 46.672875 70.692633 49.088621 70.402831 51.622719 69.824324 C 54.167843 69.242068 56.542344 68.331572 58.741061 67.092129 C 60.942603 65.832044 62.723492 64.188484 64.079982 62.150422 Z M 48.840775 31.94659 C 48.230889 31.947259 47.395209 32.253475 46.333737 32.865238 C 45.292906 33.479825 44.007992 34.917884 42.488609 37.18599 C 40.964065 39.453389 39.150421 43.026989 37.052838 47.907497 C 36.900213 48.254596 36.760245 48.624453 36.632228 49.02223 C 39.955255 48.825015 42.749368 47.998212 45.019725 46.542525 C 47.284923 45.086133 49.030666 43.353654 50.255543 41.355411 C 51.481126 39.352008 52.091123 37.506199 52.090696 35.818691 C 52.094198 34.794084 51.833988 33.891103 51.325546 33.111866 C 50.811238 32.337084 49.981732 31.944983 48.840775 31.94659 Z M 9.181561 69.574291 C 11.01638 69.57299 12.85329 68.557403 14.687835 66.521663 C 13.863205 65.709681 13.026304 65.06424 12.182293 64.586045 C 11.338987 64.102689 10.446312 63.864909 9.499815 63.866836 C 8.343378 63.866325 7.457508 64.155161 6.847366 64.734049 C 6.232064 65.31223 5.92589 65.97476 5.928844 66.721637 C 5.927344 67.462648 6.199389 68.125433 6.745685 68.704831 C 7.291981 69.28423 8.103939 69.57405 9.181561 69.574291 Z M 72.518357 89.999201 C 69.059364 89.999081 66.441235 88.579001 64.67054 85.729347 C 62.91978 82.887678 62.042706 79.193023 62.042362 74.661569 C 62.039403 71.801437 62.397059 68.764597 63.109462 65.555503 C 63.81953 62.325063 64.873217 59.157405 66.260909 56.045957 C 67.653762 52.935214 69.396704 50.108928 71.496308 47.557482 C 73.600366 45.011902 76.039638 42.974787 78.818576 41.452003 C 81.597514 39.929219 84.750727 39.167316 88.277509 39.171454 C 90.311948 39.17118 91.884198 39.360001 92.993552 39.743077 C 94.116051 40.106924 94.968753 40.560024 95.545792 41.10683 C 96.127991 41.654343 96.616869 42.115492 97.01172 42.495438 C 97.42417 42.862021 97.972518 43.042179 98.6509 43.040368 C 99.791151 43.043921 100.718791 42.718745 101.432407 42.075161 C 102.140863 41.430872 102.934001 40.782397 103.81041 40.140058 C 104.708165 39.495383 105.930428 39.168461 107.486105 39.171024 C 108.842869 39.167401 109.778892 39.510993 110.291133 40.185612 C 110.802668 40.865392 111.06076 41.783854 111.060249 42.940291 C 111.05965 44.827419 110.529393 46.705165 109.468771 48.578689 C 108.430202 50.444716 107.330867 52.87017 106.171471 55.849889 C 104.484665 59.572264 103.853348 62.419215 104.283387 64.386288 C 104.728907 66.355478 106.07163 67.338222 108.305689 67.338974 C 110.060987 67.342565 111.580041 66.882772 112.871054 65.976488 C 114.164891 65.049564 115.322596 63.772833 116.348624 62.152162 C 116.874892 61.341011 117.561142 61.051149 118.407374 61.282576 C 119.269087 61.516121 119.979638 61.9708 120.539027 62.646613 C 121.119057 63.32525 121.246833 64.005095 120.912034 64.684735 C 119.68934 67.051257 118.383492 69.679758 116.993784 72.5754 C 115.601034 75.454854 114.055863 78.218832 112.353111 80.866628 C 110.663504 83.495194 108.73483 85.681018 106.567794 87.41894 C 104.397715 89.140675 101.893283 90.001854 99.049338 90.001771 C 95.522556 89.997633 93.030391 88.579016 91.574959 85.73044 C 90.118822 82.887024 89.697213 79.35982 90.30872 75.159148 L 89.91464 75.157801 C 87.876732 79.294743 85.362217 82.803996 82.36664 85.679693 C 79.391705 88.558215 76.108473 90.001491 72.518357 89.999201 Z M 82.693983 68.95512 C 84.444826 68.952844 85.985715 68.448726 87.306328 67.441356 C 88.629766 66.413344 89.666886 65.172684 90.412527 63.718669 C 91.153715 62.258789 91.52896 60.822438 91.529354 59.397885 C 91.528927 57.710377 91.04676 56.393279 90.087309 55.452458 C 89.146162 54.493114 87.860923 54.012378 86.24191 54.011663 C 84.485907 54.013233 82.964029 54.493668 81.676276 55.452966 C 80.385481 56.396077 79.380517 57.593825 78.670997 59.052781 C 77.957023 60.505871 77.603344 61.976713 77.604092 63.469761 C 77.604519 65.157269 78.057354 66.496639 78.967758 67.488575 C 79.89576 68.467148 81.138305 68.952556 82.693983 68.95512 Z M 120.397697 89.999706 C 118.031807 90.001945 116.205278 89.289448 114.912245 87.86667 C 113.624371 86.444597 112.977499 84.679161 112.976082 82.576226 C 112.979003 80.211042 113.252413 77.252043 113.797018 73.694067 C 114.341622 70.136091 115.188718 66.288319 116.327277 62.154498 C 117.485015 58.149465 118.759924 54.402279 120.152712 50.907777 C 121.539633 47.41773 122.962151 44.58966 124.420266 42.423567 C 125.873927 40.251607 127.247119 39.16732 128.539842 39.170706 C 129.895899 39.172243 130.789447 39.557335 131.219072 40.336302 C 131.664885 41.112227 131.888267 42.015427 131.889925 43.04074 C 131.890469 44.996363 132.360248 46.211886 133.304423 46.688014 C 134.263373 47.17142 135.557056 46.591427 137.174448 44.951783 C 139.079504 43.130707 141.03927 41.716637 143.058907 40.710278 C 145.091688 39.684691 147.238715 39.168878 149.488255 39.171748 C 152.595156 39.171009 154.898008 40.090609 156.387196 41.923974 C 157.877797 43.747019 158.622998 45.946456 158.622093 48.527447 C 158.618502 50.282744 158.34663 51.885686 157.800608 53.340727 C 157.270067 54.797886 156.733442 56.222671 156.186278 57.609217 C 155.643568 59.001628 155.369141 60.546396 155.36745 62.249384 C 155.370642 65.645747 156.999696 67.340543 160.259069 67.339637 C 161.814746 67.3422 163.111909 66.85205 164.155011 65.875051 C 165.215712 64.884689 166.247671 63.643323 167.256049 62.151658 C 167.802958 61.343332 168.515715 61.05184 169.393615 61.282342 C 170.286995 61.514962 171.013027 61.971759 171.577577 62.648279 C 172.157607 63.326916 172.248555 64.006979 171.851127 64.683308 C 171.170385 65.778222 170.349625 67.358637 169.394006 69.425259 C 168.450826 71.477813 167.314059 73.677358 165.994026 76.025305 C 164.670244 78.362226 163.118975 80.594428 161.349832 82.728482 C 159.59617 84.864655 157.617727 86.607351 155.418959 87.962438 C 153.219484 89.322686 150.729441 90.001844 147.948831 89.999912 C 144.773435 90.001793 142.536087 88.949221 141.246402 86.848766 C 139.956717 84.748312 139.312269 82.273532 139.312352 79.429586 C 139.313258 76.848596 139.665497 74.389269 140.378686 72.058177 C 141.087421 69.721219 141.799583 67.589747 142.511425 65.652735 C 143.223267 63.715723 143.579604 62.071768 143.581141 60.71571 C 143.58024 59.569593 143.226657 58.695893 142.511485 58.082876 C 141.801472 57.470565 140.865667 57.163801 139.70923 57.16329 C 137.753606 57.163834 135.946567 57.999518 134.272631 59.668225 C 132.616294 61.323568 131.27594 63.474232 130.250865 66.125376 C 129.244799 68.752837 128.739447 71.601251 128.736219 74.660298 L 128.736782 79.228579 C 128.737209 80.916087 128.533563 82.596702 128.115521 84.269013 C 127.720945 85.923507 126.928424 87.297511 125.733506 88.385161 C 124.545159 89.463196 122.763587 89.997467 120.397697 89.999706 Z M 218.609863 62.154402 C 219.00398 61.540702 219.644224 61.318142 220.520981 61.480149 C 221.412512 61.649434 222.182214 62.017582 222.827966 62.600074 C 223.474425 63.177406 223.589763 63.871319 223.173978 64.681815 C 221.689165 67.811517 220.24661 70.86289 218.855927 73.842508 C 217.465243 76.822125 215.995628 79.533358 214.440508 81.98582 C 212.883052 84.416936 211.155511 86.362179 209.253432 87.815682 C 207.350647 89.274346 205.180541 89.997276 202.751316 90.001363 C 201.258268 90.002111 200.067208 89.255648 199.177432 87.767133 C 197.00761 94.751012 194.681475 100.341467 192.203481 104.544364 C 189.735808 108.748673 186.980595 111.788676 183.935724 113.679855 C 180.894602 115.58206 177.431671 116.532891 173.562413 116.534466 C 168.216293 116.533747 164.072035 115.12566 161.128934 112.315365 C 158.165898 109.497087 156.683931 105.651335 156.68374 100.77295 C 156.682528 98.20744 157.059761 95.988091 157.804413 94.11865 C 158.549065 92.249209 159.396987 90.777647 160.359207 89.700215 C 161.302197 88.60964 162.143677 87.91521 162.888808 87.617633 C 163.636057 87.304576 164.041112 87.417818 164.108427 87.963227 C 164.389975 90.477724 165.52018 92.514304 167.504907 94.068514 C 169.510276 95.625547 172.206552 96.43601 175.598898 96.500608 C 177.964082 96.503529 180.198396 95.926063 182.296682 94.767502 C 184.398009 93.625128 186.276186 92.115786 187.934962 90.250502 C 189.602646 88.39695 190.912693 86.352534 191.854782 84.115841 C 192.81447 81.865786 193.29469 79.623728 193.295442 77.389669 C 193.293951 76.516827 192.952603 76.091633 192.275145 76.125112 C 191.597688 76.158591 191.016659 76.67838 190.536513 77.690344 C 189.181478 81.216294 187.198121 83.993918 184.580577 86.027671 C 181.983674 88.064247 179.394728 89.082082 176.813737 89.081177 C 173.29141 89.082905 170.478063 87.783309 168.373697 85.182388 C 166.275904 82.571853 165.221984 79.362918 165.222258 75.556994 C 165.220413 71.766551 165.761692 67.771802 166.83648 63.566174 C 167.926749 59.362664 169.575417 55.419541 171.772871 51.730231 C 173.991672 48.038586 176.737489 45.028838 180.016187 42.696533 C 183.30803 40.345 187.122449 39.168901 191.459443 39.168236 C 193.493882 39.167962 195.065426 39.361943 196.170326 39.739153 C 197.297985 40.103706 198.149981 40.561966 198.727726 41.103612 C 199.309926 41.651125 199.798098 42.117434 200.192948 42.49738 C 200.606104 42.858803 201.153747 43.044122 201.832128 43.04231 C 202.973085 43.040703 203.900019 42.720687 204.609181 42.071237 C 205.322797 41.427654 206.11523 40.784339 206.992344 40.13684 C 207.884939 39.491459 209.111656 39.170403 210.668039 39.167806 C 212.024097 39.169344 212.960826 39.507775 213.472361 40.187555 C 213.983896 40.867334 214.241988 41.785796 214.241478 42.942234 C 214.239067 44.15098 213.842475 45.589667 213.050995 47.263454 C 212.272659 48.918013 211.255554 51.049819 209.998972 53.664034 C 208.754829 56.264179 207.421679 59.630161 205.998818 63.767141 C 205.322522 66.481773 205.322629 68.363741 206.002887 69.42407 C 206.680103 70.468213 207.592123 70.987254 208.732374 70.990807 C 210.304238 70.990328 211.968471 70.04574 213.719207 68.161496 C 215.488954 66.253569 217.118937 64.252924 218.609863 62.154402 Z M 186.070377 68.952222 C 187.757885 68.951795 189.246465 68.445778 190.540571 67.440037 C 191.827181 66.412244 192.848114 65.174626 193.589301 63.714745 C 194.334943 62.260731 194.710894 60.81922 194.710583 59.399828 C 194.709835 57.906779 194.267757 56.642478 193.390215 55.602469 C 192.515496 54.541819 191.095165 54.01106 189.124061 54.009486 C 187.504343 54.013931 186.061987 54.489474 184.805196 55.453008 C 183.546069 56.395195 182.561745 57.595767 181.852932 59.049563 C 181.138252 60.507813 180.784572 61.978655 180.786026 63.466544 C 180.786774 64.959592 181.188494 66.249913 182.001507 67.338919 C 182.810772 68.416898 184.167062 68.954666 186.070377 68.952222 Z M 269.422991 62.151511 C 269.9699 61.343184 270.682657 61.051692 271.560557 61.282194 C 272.43775 61.517857 273.164488 61.969494 273.744518 62.648131 C 274.324549 63.326768 274.415497 64.006831 274.018068 64.68316 C 273.337327 65.778074 272.516567 67.358489 271.560948 69.425112 C 270.617767 71.477666 269.481 73.67721 268.160967 76.025158 C 266.837186 78.362079 265.285917 80.59428 263.516774 82.728335 C 261.763112 84.864507 259.784669 86.607204 257.5859 87.962291 C 255.386426 89.322538 252.896383 90.001696 250.115773 89.999764 C 244.290891 90.001883 241.378672 86.312662 241.379117 78.932103 C 241.377343 77.638674 241.478118 76.248882 241.676284 74.762021 C 240.585421 77.125551 239.258816 79.483113 237.706789 81.836119 C 236.152427 84.167777 234.354054 86.092816 232.321287 87.617806 C 230.284066 89.13693 227.95068 89.900602 225.322541 89.898503 C 222.60456 89.899883 220.43169 88.913958 218.792198 86.949635 C 217.1696 84.97711 216.361909 81.928026 216.360218 77.790652 C 216.362782 76.234975 216.475866 74.063596 216.708379 71.288248 C 216.957785 68.504697 217.584262 65.46258 218.594382 62.152284 C 220.976467 54.692787 223.369031 49.001026 225.766913 45.076296 C 228.166207 41.141245 230.79076 39.171534 233.634705 39.171617 C 235.73764 39.1702 236.787217 40.528129 236.789303 43.24095 C 236.787408 45.406514 236.396812 47.608265 235.618221 49.841042 C 234.844791 52.074526 234.082874 54.262273 233.339044 56.394669 C 232.595214 58.527065 232.22015 60.61529 232.220425 62.649729 C 232.22003 64.074282 232.509469 65.186279 233.086625 66.001201 C 233.669646 66.811669 234.802684 67.213756 236.489486 67.218489 C 238.324305 67.217188 239.987898 66.661519 241.480263 65.551482 C 242.96888 64.430418 244.1477 62.61512 245.025632 60.117321 L 245.125512 59.694667 C 247.226685 53.058862 249.362123 47.978515 251.531119 44.458789 C 253.69566 40.933196 256.071006 39.171205 258.651997 39.172111 C 259.661829 39.168334 260.440002 39.474559 260.986517 40.090786 C 261.533737 40.701852 261.805141 41.753556 261.806595 43.241444 C 261.803878 45.144053 261.418275 47.194038 260.63876 49.395148 C 259.859244 51.596258 259.098034 53.778844 258.354422 55.948068 C 257.610811 58.117292 257.236992 60.042725 257.237419 61.730233 C 257.239862 63.633548 257.760924 65.05059 258.801309 65.9762 C 259.859999 66.883287 261.069953 67.337952 262.42601 67.339489 C 263.981688 67.342053 265.27885 66.851902 266.321953 65.874903 C 267.382653 64.884541 268.414613 63.643175 269.422991 62.151511 Z M 277.861366 90.00029 C 274.402374 90.00017 271.790111 88.575636 270.01871 85.731142 C 268.263495 82.883606 267.385716 79.194112 267.385372 74.662658 C 267.388279 71.798071 267.745935 68.761231 268.453178 65.551432 C 269.1677 62.326858 270.216227 59.158493 271.609079 56.047751 C 272.996771 52.936303 274.74042 50.104856 276.844478 47.559277 C 278.943376 45.012991 281.387808 42.976582 284.166746 41.453798 C 286.945684 39.931014 290.098897 39.169111 293.621224 39.167383 C 295.654958 39.172268 297.227207 39.361089 298.337268 39.739005 C 299.464927 40.103558 300.311763 40.561112 300.894668 41.103465 C 301.471707 41.650271 301.959879 42.116581 302.35989 42.497232 C 302.773046 42.858655 303.315528 43.043268 303.99391 43.041456 C 305.140027 43.040555 306.0618 42.719834 306.775417 42.07625 C 307.489739 41.427506 308.282171 40.784192 309.159286 40.136692 C 310.051881 39.491311 311.278598 39.170255 312.829115 39.172113 C 314.191039 39.169196 315.122608 39.506921 315.634143 40.186701 C 316.150838 40.867187 316.40377 41.784943 316.403259 42.94138 C 316.40782 44.829214 315.877563 46.70696 314.817647 48.575323 C 313.773212 50.445805 312.673877 52.871258 311.514481 55.850978 C 309.827675 59.573353 309.202224 62.41585 309.631557 64.388082 C 310.077077 66.357273 311.41464 67.339311 313.648699 67.340063 C 315.404703 67.338493 316.928211 66.884566 318.21993 65.973123 C 319.507901 65.050652 320.665606 63.773921 321.691634 62.153251 C 322.223062 61.342806 322.909312 61.052944 323.750384 61.283665 C 324.612096 61.517209 325.322647 61.971888 325.887197 62.648408 C 326.467227 63.327045 326.589843 64.006184 326.260204 64.68653 C 325.03235 67.052346 323.726502 69.680847 322.336794 72.576488 C 320.949204 75.456649 319.398873 78.219921 317.696121 80.867716 C 316.006514 83.496283 314.083 85.682813 311.910803 87.420029 C 309.746591 89.13731 307.236999 89.997783 304.393054 89.9977 C 300.870726 89.999428 298.379267 88.575651 296.923129 85.732235 C 295.467698 82.883659 295.045383 79.361615 295.657596 75.155782 L 295.25765 75.15889 C 293.224902 79.296538 290.711093 82.800631 287.71481 85.681488 C 284.734715 88.559303 281.451483 90.002579 277.861366 90.00029 Z M 288.037699 68.951048 C 289.792996 68.954638 291.328724 68.449815 292.655204 67.43799 C 293.977936 66.415139 295.009896 65.173772 295.756243 63.714598 C 296.501885 62.260583 296.872676 60.818367 296.872364 59.398974 C 296.871937 57.711466 296.39493 56.395074 295.435479 55.454253 C 294.489172 54.494203 293.209093 54.014173 291.58492 54.012752 C 289.834783 54.009868 288.312905 54.490302 287.019286 55.454054 C 285.728491 56.397166 284.728687 57.595619 284.014713 59.048709 C 283.305193 60.507666 282.951514 61.978508 282.947807 63.46569 C 282.948235 65.153198 283.405524 66.498433 284.315928 67.490369 C 285.239475 68.463076 286.481315 68.953645 288.037699 68.951048 Z M 373.024806 62.15317 C 373.424083 61.540176 374.059167 61.31691 374.935218 61.484077 C 375.827456 61.648202 376.596451 62.021511 377.24291 62.598842 C 377.889369 63.176174 378.004 63.875248 377.593376 64.686449 C 376.104109 67.810285 374.661554 70.861658 373.27603 73.841982 C 371.885347 76.821599 370.410571 79.532126 368.855452 81.984589 C 367.297995 84.415704 365.570455 86.360947 363.668376 87.81445 C 361.765591 89.273114 359.599939 90.00191 357.16626 90.000131 C 355.678371 90.001585 354.487312 89.255122 353.592376 87.765901 C 351.422554 94.74978 349.101579 100.340941 346.618425 104.543132 C 344.150751 108.747441 341.394833 111.792605 338.350668 113.678623 C 335.309546 115.580828 331.851775 116.532365 327.977356 116.533234 C 322.631236 116.532515 318.486978 115.124428 315.543877 112.314134 C 312.580135 109.501015 311.098875 105.650103 311.098684 100.771718 C 311.102631 98.206915 311.473998 95.992019 312.21865 94.122578 C 312.964008 92.247977 313.817091 90.777121 314.773444 89.704144 C 315.71714 88.608408 316.563781 87.914684 317.303751 87.616402 C 318.051 87.303344 318.456055 87.416586 318.522665 87.967155 C 318.804213 90.481652 319.935124 92.513072 321.924305 94.073148 C 323.925219 95.624315 326.621496 96.434778 330.013135 96.504537 C 332.379025 96.502298 334.61334 95.924831 336.716785 94.766976 C 338.818113 93.624603 340.695584 92.120421 342.349906 90.24927 C 344.01759 88.395719 345.327637 86.351302 346.26902 84.11977 C 347.228708 81.869714 347.708928 79.627656 347.70968 77.393597 C 347.708895 76.515596 347.372707 76.091107 346.690089 76.12388 C 346.012631 76.157359 345.436057 76.683014 344.956617 77.689818 C 343.596421 81.215062 341.613065 83.992687 338.995521 86.026439 C 336.398618 88.063015 333.809671 89.08085 331.228681 89.079945 C 327.706353 89.081673 324.893007 87.782077 322.793095 85.187023 C 320.690848 82.570621 319.636928 79.361686 319.637201 75.555762 C 319.640517 71.766026 320.176636 67.77057 321.251424 63.564942 C 322.346146 59.367299 323.990361 55.418309 326.192975 51.729705 C 328.406616 48.037354 331.152432 45.027606 334.431131 42.695302 C 337.722974 40.343768 341.537392 39.167669 345.87368 39.172165 C 347.90812 39.17189 349.48037 39.360711 350.59043 39.738627 C 351.712929 40.102474 352.564925 40.560734 353.141964 41.107541 C 353.724869 41.649893 354.213041 42.116202 354.607892 42.496148 C 355.021047 42.857571 355.56869 43.04289 356.247072 43.041078 C 357.388029 43.039471 358.314962 42.719456 359.028579 42.075872 C 359.737741 41.426422 360.530173 40.783108 361.412448 40.136314 C 362.305043 39.490933 363.526599 39.169171 365.082277 39.171735 C 366.439041 39.168112 367.375064 39.511703 367.887305 40.186323 C 368.39884 40.866103 368.656932 41.784564 368.656421 42.941002 C 368.659171 44.150454 368.257418 45.588435 367.465938 47.262223 C 366.687603 48.916781 365.670497 51.048588 364.413916 53.662802 C 363.169773 56.262947 361.841783 59.629636 360.418922 63.766615 C 359.737465 66.480542 359.736866 68.36767 360.417831 69.422839 C 361.095047 70.466981 362.007066 70.986022 363.147317 70.989575 C 364.719182 70.989096 366.383415 70.044508 368.134151 68.160264 C 369.908352 66.258203 371.533881 64.251692 373.024806 62.15317 Z M 340.48532 68.950991 C 342.172828 68.950563 343.665863 68.450412 344.955515 67.438806 C 346.247285 66.411718 347.263058 65.173394 348.009405 63.71422 C 348.749886 62.259499 349.125132 60.823149 349.125526 59.398596 C 349.124072 57.910708 348.68786 56.641952 347.810318 55.601943 C 346.93044 54.540587 345.510109 54.009828 343.538299 54.013414 C 341.919286 54.012699 340.476224 54.493403 339.220139 55.451777 C 337.966172 56.39467 336.976689 57.594535 336.267875 59.048331 C 335.558355 60.507288 335.199515 61.977424 335.200263 63.470472 C 335.201717 64.95836 335.603438 66.248681 336.416451 67.337687 C 337.225716 68.415666 338.582006 68.953434 340.48532 68.950991 Z M 389.790238 90.000466 C 385.716199 90.000309 382.376302 89.091276 379.760225 87.271957 C 377.162453 85.434114 375.233703 83.009669 373.979137 79.999327 C 372.722234 76.967638 372.109593 73.645599 372.142625 70.022891 C 372.176364 66.395022 372.803096 62.774686 374.029394 59.15227 C 375.251238 55.523988 377.014101 52.206282 379.312824 49.198448 C 381.61437 46.169973 384.411534 43.745504 387.704316 41.925041 C 390.994055 40.088391 394.709838 39.172154 398.847212 39.170463 C 402.022609 39.168581 404.611546 39.764598 406.614025 40.958513 C 408.619329 42.131788 410.091509 43.70524 411.031271 45.673711 C 411.976194 47.642887 412.446052 49.741572 412.45046 51.976337 C 412.446564 54.425497 411.770858 56.866854 410.413021 59.298996 C 409.071372 61.728096 407.17561 63.750204 404.727147 65.354999 C 402.296988 66.941272 399.417975 67.735432 396.090108 67.737481 C 394.670715 67.737793 393.280923 67.637017 391.920026 67.440314 C 390.567113 67.223676 389.313759 66.778844 388.176857 66.097615 C 387.825085 65.902296 387.447899 65.892746 387.034269 66.072715 C 386.638239 66.23932 386.438196 66.664041 386.434848 67.341717 C 386.437124 69.09256 387.473338 70.43289 389.53833 71.362002 C 391.606147 72.270473 394.098502 72.727112 397.010944 72.726052 C 400.469936 72.726173 404.043787 71.848342 407.732496 70.092561 C 411.422618 68.32646 414.418798 65.67689 416.714464 62.153466 C 417.262079 61.339979 417.97413 61.053647 418.85203 61.28415 C 419.74541 61.51677 420.472148 61.968407 421.035991 62.650086 C 421.616022 63.328723 421.707676 64.003626 421.309541 64.685115 C 416.824164 72.955535 411.921186 79.244814 406.590993 83.546378 C 401.281441 87.850767 395.677749 90.001659 389.790238 90.000466 Z M 393.463222 60.118375 C 395.413685 60.117125 396.94501 59.490792 398.052743 58.233508 C 399.176663 56.973182 399.739963 55.699239 399.742643 54.411676 C 399.741742 53.265559 399.349264 52.291914 398.571783 51.481126 C 397.79642 50.654857 396.628672 50.237507 395.072289 50.240104 C 393.106345 50.239236 391.54031 50.850307 390.384504 52.074729 C 389.244179 53.301269 388.673601 54.589988 388.672064 55.946045 C 388.671823 57.023667 389.059846 57.991446 389.836133 58.849383 C 390.613833 59.696999 391.822862 60.119996 393.463222 60.118375 Z M 393.463222 60.118375 " stroke="#FFECDB" stroke-width="16.138842" stroke-opacity="1" stroke-miterlimit="4"/><g fill="#3498DB" fill-opacity="1"><g transform="translate(35.591391, 216.662307)"><g><path d="M 44.546875 -27.1875 C 44.859375 -27.84375 45.335938 -28.125 45.984375 -28.03125 C 46.640625 -27.945312 47.21875 -27.679688 47.71875 -27.234375 C 48.21875 -26.785156 48.375 -26.289062 48.1875 -25.75 C 46.707031 -21.59375 45.328125 -18.171875 44.046875 -15.484375 C 42.773438 -12.804688 41.523438 -10.703125 40.296875 -9.171875 C 39.078125 -7.640625 37.832031 -6.519531 36.5625 -5.8125 C 35.300781 -5.101562 33.941406 -4.644531 32.484375 -4.4375 C 30.117188 -4.113281 27.925781 -4.273438 25.90625 -4.921875 C 23.894531 -5.578125 22.0625 -6.507812 20.40625 -7.71875 C 18.757812 -8.925781 17.203125 -10.222656 15.734375 -11.609375 C 14.210938 -8.117188 12.398438 -5.320312 10.296875 -3.21875 C 8.203125 -1.113281 5.59375 0.15625 2.46875 0.59375 C -0.25 0.957031 -2.609375 0.675781 -4.609375 -0.25 C -6.609375 -1.1875 -8.1875 -2.523438 -9.34375 -4.265625 C -10.507812 -6.003906 -11.238281 -7.929688 -11.53125 -10.046875 C -11.820312 -12.160156 -11.554688 -14.269531 -10.734375 -16.375 C -9.921875 -18.488281 -8.53125 -20.320312 -6.5625 -21.875 C -4.601562 -23.425781 -2.035156 -24.421875 1.140625 -24.859375 C 2.960938 -25.109375 4.664062 -25.132812 6.25 -24.9375 C 7.832031 -24.738281 9.347656 -24.4375 10.796875 -24.03125 C 10.984375 -24.507812 11.175781 -25.03125 11.375 -25.59375 C 11.582031 -26.164062 11.785156 -26.722656 11.984375 -27.265625 C 7.421875 -27.921875 3.679688 -29.507812 0.765625 -32.03125 C -2.140625 -34.5625 -3.863281 -37.816406 -4.40625 -41.796875 C -4.976562 -45.972656 -4.21875 -49.5 -2.125 -52.375 C -0.03125 -55.257812 3.003906 -56.976562 6.984375 -57.53125 C 9.503906 -57.875 11.597656 -57.550781 13.265625 -56.5625 C 14.941406 -55.582031 15.90625 -54.164062 16.15625 -52.3125 C 16.34375 -50.945312 16.035156 -50.210938 15.234375 -50.109375 C 13.421875 -49.859375 11.957031 -49.023438 10.84375 -47.609375 C 9.726562 -46.203125 9.320312 -44.390625 9.625 -42.171875 C 9.832031 -40.609375 10.332031 -39.269531 11.125 -38.15625 C 11.925781 -37.039062 12.910156 -36.125 14.078125 -35.40625 C 15.484375 -40.875 16.984375 -45.476562 18.578125 -49.21875 C 20.179688 -52.957031 22.046875 -55.851562 24.171875 -57.90625 C 26.296875 -59.96875 28.894531 -61.207031 31.96875 -61.625 C 35.394531 -62.09375 38.222656 -61.582031 40.453125 -60.09375 C 42.679688 -58.601562 44.035156 -56.097656 44.515625 -52.578125 C 44.878906 -49.953125 44.707031 -47.285156 44 -44.578125 C 43.289062 -41.867188 42.007812 -39.320312 40.15625 -36.9375 C 38.300781 -34.550781 35.847656 -32.507812 32.796875 -30.8125 C 29.742188 -29.113281 26.050781 -27.96875 21.71875 -27.375 L 20.90625 -27.265625 C 20.289062 -24.972656 19.660156 -22.804688 19.015625 -20.765625 C 20.804688 -20.035156 22.648438 -19.453125 24.546875 -19.015625 C 26.453125 -18.578125 28.515625 -18.507812 30.734375 -18.8125 C 32.453125 -19.050781 34.226562 -19.515625 36.0625 -20.203125 C 37.894531 -20.898438 39.566406 -21.820312 41.078125 -22.96875 C 42.585938 -24.125 43.742188 -25.53125 44.546875 -27.1875 Z M 30.140625 -48.0625 C 29.679688 -48 29.09375 -47.6875 28.375 -47.125 C 27.65625 -46.570312 26.84375 -45.375 25.9375 -43.53125 C 25.03125 -41.6875 24.050781 -38.84375 23 -35 C 22.925781 -34.738281 22.859375 -34.453125 22.796875 -34.140625 C 25.242188 -34.628906 27.238281 -35.53125 28.78125 -36.84375 C 30.320312 -38.15625 31.441406 -39.613281 32.140625 -41.21875 C 32.847656 -42.832031 33.113281 -44.269531 32.9375 -45.53125 C 32.84375 -46.28125 32.566406 -46.914062 32.109375 -47.4375 C 31.648438 -47.96875 30.992188 -48.175781 30.140625 -48.0625 Z M 4.5 -16.09375 C 5.851562 -16.269531 7.109375 -17.207031 8.265625 -18.90625 C 7.578125 -19.425781 6.894531 -19.816406 6.21875 -20.078125 C 5.539062 -20.347656 4.847656 -20.4375 4.140625 -20.34375 C 3.285156 -20.21875 2.660156 -19.910156 2.265625 -19.421875 C 1.867188 -18.929688 1.707031 -18.414062 1.78125 -17.875 C 1.863281 -17.3125 2.132812 -16.84375 2.59375 -16.46875 C 3.050781 -16.101562 3.6875 -15.976562 4.5 -16.09375 Z M 4.5 -16.09375 "/></g></g></g><g fill="#3498DB" fill-opacity="1"><g transform="translate(81.216623, 210.420157)"><g><path d="M 8 -1.09375 C 5.4375 -0.738281 3.351562 -1.53125 1.75 -3.46875 C 0.15625 -5.40625 -0.867188 -8.0625 -1.328125 -11.4375 C -1.617188 -13.550781 -1.660156 -15.835938 -1.453125 -18.296875 C -1.253906 -20.765625 -0.796875 -23.226562 -0.078125 -25.6875 C 0.628906 -28.144531 1.632812 -30.425781 2.9375 -32.53125 C 4.238281 -34.632812 5.84375 -36.390625 7.75 -37.796875 C 9.664062 -39.210938 11.929688 -40.101562 14.546875 -40.46875 C 16.054688 -40.664062 17.242188 -40.679688 18.109375 -40.515625 C 18.984375 -40.359375 19.660156 -40.109375 20.140625 -39.765625 C 20.628906 -39.429688 21.039062 -39.144531 21.375 -38.90625 C 21.71875 -38.675781 22.140625 -38.59375 22.640625 -38.65625 C 23.492188 -38.769531 24.15625 -39.097656 24.625 -39.640625 C 25.09375 -40.191406 25.617188 -40.75 26.203125 -41.3125 C 26.796875 -41.882812 27.671875 -42.253906 28.828125 -42.421875 C 29.835938 -42.554688 30.566406 -42.394531 31.015625 -41.9375 C 31.460938 -41.488281 31.742188 -40.835938 31.859375 -39.984375 C 32.046875 -38.578125 31.847656 -37.125 31.265625 -35.625 C 30.679688 -34.132812 30.109375 -32.226562 29.546875 -29.90625 C 28.660156 -26.957031 28.484375 -24.773438 29.015625 -23.359375 C 29.546875 -21.941406 30.640625 -21.347656 32.296875 -21.578125 C 33.609375 -21.753906 34.691406 -22.25 35.546875 -23.0625 C 36.410156 -23.875 37.144531 -24.9375 37.75 -26.25 C 38.0625 -26.914062 38.539062 -27.203125 39.1875 -27.109375 C 39.84375 -27.015625 40.421875 -26.742188 40.921875 -26.296875 C 41.429688 -25.847656 41.585938 -25.359375 41.390625 -24.828125 C 40.722656 -22.929688 40.019531 -20.84375 39.28125 -18.5625 C 38.539062 -16.289062 37.675781 -14.085938 36.6875 -11.953125 C 35.695312 -9.816406 34.484375 -7.992188 33.046875 -6.484375 C 31.617188 -4.984375 29.84375 -4.085938 27.71875 -3.796875 C 25.101562 -3.429688 23.109375 -4.234375 21.734375 -6.203125 C 20.359375 -8.171875 19.679688 -10.742188 19.703125 -13.921875 L 19.421875 -13.875 C 18.328125 -10.601562 16.816406 -7.742188 14.890625 -5.296875 C 12.972656 -2.859375 10.675781 -1.457031 8 -1.09375 Z M 13.421875 -17.765625 C 14.734375 -17.941406 15.828125 -18.472656 16.703125 -19.359375 C 17.578125 -20.253906 18.21875 -21.28125 18.625 -22.4375 C 19.039062 -23.59375 19.175781 -24.703125 19.03125 -25.765625 C 18.851562 -27.023438 18.363281 -27.957031 17.5625 -28.5625 C 16.757812 -29.175781 15.753906 -29.398438 14.546875 -29.234375 C 13.234375 -29.054688 12.144531 -28.546875 11.28125 -27.703125 C 10.425781 -26.867188 9.804688 -25.875 9.421875 -24.71875 C 9.046875 -23.5625 8.929688 -22.429688 9.078125 -21.328125 C 9.253906 -20.066406 9.734375 -19.117188 10.515625 -18.484375 C 11.296875 -17.847656 12.265625 -17.609375 13.421875 -17.765625 Z M 13.421875 -17.765625 "/></g></g></g><g fill="#3498DB" fill-opacity="1"><g transform="translate(120.043389, 205.108129)"><g><path d="M 4.75 -0.65625 C 3 -0.414062 1.566406 -0.753906 0.453125 -1.671875 C -0.648438 -2.597656 -1.304688 -3.84375 -1.515625 -5.40625 C -1.753906 -7.164062 -1.851562 -9.394531 -1.8125 -12.09375 C -1.769531 -14.789062 -1.53125 -17.738281 -1.09375 -20.9375 C -0.644531 -24.019531 -0.0820312 -26.929688 0.59375 -29.671875 C 1.269531 -32.410156 2.035156 -34.65625 2.890625 -36.40625 C 3.753906 -38.164062 4.671875 -39.113281 5.640625 -39.25 C 6.640625 -39.382812 7.34375 -39.1875 7.75 -38.65625 C 8.15625 -38.125 8.410156 -37.476562 8.515625 -36.71875 C 8.722656 -35.25 9.203125 -34.390625 9.953125 -34.140625 C 10.710938 -33.890625 11.613281 -34.453125 12.65625 -35.828125 C 13.863281 -37.378906 15.171875 -38.632812 16.578125 -39.59375 C 17.992188 -40.550781 19.53125 -41.144531 21.1875 -41.375 C 23.507812 -41.6875 25.316406 -41.238281 26.609375 -40.03125 C 27.898438 -38.820312 28.675781 -37.265625 28.9375 -35.359375 C 29.113281 -34.046875 29.078125 -32.820312 28.828125 -31.6875 C 28.578125 -30.550781 28.320312 -29.4375 28.0625 -28.34375 C 27.800781 -27.257812 27.753906 -26.085938 27.921875 -24.828125 C 28.273438 -22.304688 29.660156 -21.210938 32.078125 -21.546875 C 33.234375 -21.703125 34.148438 -22.203125 34.828125 -23.046875 C 35.503906 -23.890625 36.144531 -24.914062 36.75 -26.125 C 37.070312 -26.78125 37.570312 -27.0625 38.25 -26.96875 C 38.925781 -26.882812 39.515625 -26.617188 40.015625 -26.171875 C 40.515625 -25.722656 40.644531 -25.226562 40.40625 -24.6875 C 40.019531 -23.820312 39.578125 -22.566406 39.078125 -20.921875 C 38.578125 -19.285156 37.957031 -17.53125 37.21875 -15.65625 C 36.476562 -13.789062 35.5625 -11.972656 34.46875 -10.203125 C 33.375 -8.441406 32.078125 -6.945312 30.578125 -5.71875 C 29.078125 -4.488281 27.296875 -3.734375 25.234375 -3.453125 C 22.867188 -3.128906 21.097656 -3.679688 19.921875 -5.109375 C 18.753906 -6.546875 18.023438 -8.320312 17.734375 -10.4375 C 17.472656 -12.351562 17.488281 -14.210938 17.78125 -16.015625 C 18.070312 -17.828125 18.382812 -19.484375 18.71875 -20.984375 C 19.050781 -22.492188 19.148438 -23.75 19.015625 -24.75 C 18.890625 -25.601562 18.53125 -26.222656 17.9375 -26.609375 C 17.351562 -26.992188 16.632812 -27.125 15.78125 -27 C 14.3125 -26.800781 13.046875 -26.003906 11.984375 -24.609375 C 10.921875 -23.210938 10.144531 -21.476562 9.65625 -19.40625 C 9.164062 -17.332031 9.078125 -15.164062 9.390625 -12.90625 L 9.859375 -9.5 C 10.023438 -8.238281 10.039062 -6.972656 9.90625 -5.703125 C 9.78125 -4.429688 9.332031 -3.332031 8.5625 -2.40625 C 7.789062 -1.476562 6.519531 -0.894531 4.75 -0.65625 Z M 4.75 -0.65625 "/></g></g></g><g fill="#3498DB" fill-opacity="1"><g transform="translate(157.888154, 199.930453)"><g><path d="M 37.0625 -26.15625 C 37.300781 -26.644531 37.753906 -26.867188 38.421875 -26.828125 C 39.097656 -26.796875 39.703125 -26.597656 40.234375 -26.234375 C 40.773438 -25.878906 40.929688 -25.378906 40.703125 -24.734375 C 39.921875 -22.265625 39.164062 -19.847656 38.4375 -17.484375 C 37.707031 -15.128906 36.882812 -12.96875 35.96875 -11 C 35.0625 -9.03125 33.976562 -7.40625 32.71875 -6.125 C 31.457031 -4.851562 29.914062 -4.09375 28.09375 -3.84375 C 26.988281 -3.695312 26.035156 -4.128906 25.234375 -5.140625 C 24.328125 0.253906 23.171875 4.640625 21.765625 8.015625 C 20.359375 11.398438 18.617188 13.953125 16.546875 15.671875 C 14.472656 17.390625 12 18.445312 9.125 18.84375 C 5.144531 19.382812 1.921875 18.757812 -0.546875 16.96875 C -3.023438 15.1875 -4.515625 12.476562 -5.015625 8.84375 C -5.273438 6.9375 -5.222656 5.25 -4.859375 3.78125 C -4.492188 2.3125 -4.015625 1.125 -3.421875 0.21875 C -2.835938 -0.675781 -2.285156 -1.273438 -1.765625 -1.578125 C -1.242188 -1.878906 -0.925781 -1.832031 -0.8125 -1.4375 C -0.363281 0.40625 0.679688 1.800781 2.328125 2.75 C 3.984375 3.707031 6.066406 4.039062 8.578125 3.75 C 10.347656 3.5 11.957031 2.835938 13.40625 1.765625 C 14.851562 0.703125 16.097656 -0.601562 17.140625 -2.15625 C 18.179688 -3.707031 18.941406 -5.363281 19.421875 -7.125 C 19.898438 -8.882812 20.023438 -10.59375 19.796875 -12.25 C 19.703125 -12.914062 19.40625 -13.195312 18.90625 -13.09375 C 18.40625 -13 18.035156 -12.550781 17.796875 -11.75 C 17.140625 -8.988281 15.941406 -6.71875 14.203125 -4.9375 C 12.472656 -3.164062 10.65625 -2.148438 8.75 -1.890625 C 6.125 -1.535156 3.898438 -2.21875 2.078125 -3.9375 C 0.253906 -5.664062 -0.847656 -7.941406 -1.234375 -10.765625 C -1.617188 -13.578125 -1.625 -16.597656 -1.25 -19.828125 C -0.875 -23.054688 -0.0546875 -26.15625 1.203125 -29.125 C 2.460938 -32.101562 4.191406 -34.625 6.390625 -36.6875 C 8.597656 -38.757812 11.316406 -40.019531 14.546875 -40.46875 C 16.054688 -40.664062 17.242188 -40.679688 18.109375 -40.515625 C 18.984375 -40.359375 19.660156 -40.109375 20.140625 -39.765625 C 20.628906 -39.429688 21.039062 -39.144531 21.375 -38.90625 C 21.71875 -38.675781 22.140625 -38.59375 22.640625 -38.65625 C 23.492188 -38.769531 24.15625 -39.097656 24.625 -39.640625 C 25.09375 -40.191406 25.617188 -40.75 26.203125 -41.3125 C 26.796875 -41.882812 27.671875 -42.253906 28.828125 -42.421875 C 29.835938 -42.554688 30.566406 -42.394531 31.015625 -41.9375 C 31.460938 -41.488281 31.742188 -40.835938 31.859375 -39.984375 C 31.984375 -39.085938 31.835938 -37.976562 31.421875 -36.65625 C 31.015625 -35.34375 30.476562 -33.65625 29.8125 -31.59375 C 29.144531 -29.53125 28.492188 -26.882812 27.859375 -23.65625 C 27.628906 -21.582031 27.816406 -20.191406 28.421875 -19.484375 C 29.023438 -18.773438 29.757812 -18.476562 30.625 -18.59375 C 31.789062 -18.75 32.925781 -19.617188 34.03125 -21.203125 C 35.144531 -22.796875 36.15625 -24.445312 37.0625 -26.15625 Z M 13.578125 -17.796875 C 14.835938 -17.960938 15.890625 -18.488281 16.734375 -19.375 C 17.585938 -20.257812 18.21875 -21.28125 18.625 -22.4375 C 19.039062 -23.59375 19.175781 -24.703125 19.03125 -25.765625 C 18.875 -26.867188 18.414062 -27.769531 17.65625 -28.46875 C 16.894531 -29.164062 15.78125 -29.410156 14.3125 -29.203125 C 13.101562 -29.046875 12.082031 -28.546875 11.25 -27.703125 C 10.414062 -26.867188 9.804688 -25.875 9.421875 -24.71875 C 9.046875 -23.5625 8.929688 -22.429688 9.078125 -21.328125 C 9.234375 -20.210938 9.664062 -19.296875 10.375 -18.578125 C 11.09375 -17.859375 12.160156 -17.597656 13.578125 -17.796875 Z M 13.578125 -17.796875 "/></g></g></g><g fill="#3498DB" fill-opacity="1"><g transform="translate(196.035077, 194.711437)"><g><path d="M 36.671875 -26.109375 C 36.992188 -26.765625 37.492188 -27.046875 38.171875 -26.953125 C 38.847656 -26.867188 39.4375 -26.601562 39.9375 -26.15625 C 40.4375 -25.71875 40.566406 -25.226562 40.328125 -24.6875 C 39.941406 -23.8125 39.5 -22.554688 39 -20.921875 C 38.5 -19.285156 37.878906 -17.53125 37.140625 -15.65625 C 36.398438 -13.789062 35.484375 -11.972656 34.390625 -10.203125 C 33.296875 -8.429688 32 -6.929688 30.5 -5.703125 C 29 -4.472656 27.21875 -3.71875 25.15625 -3.4375 C 20.820312 -2.84375 18.28125 -5.289062 17.53125 -10.78125 C 17.394531 -11.738281 17.332031 -12.78125 17.34375 -13.90625 C 16.769531 -12.039062 16.023438 -10.15625 15.109375 -8.25 C 14.191406 -6.351562 13.050781 -4.738281 11.6875 -3.40625 C 10.332031 -2.070312 8.671875 -1.269531 6.703125 -1 C 4.691406 -0.71875 2.984375 -1.222656 1.578125 -2.515625 C 0.171875 -3.816406 -0.738281 -6.007812 -1.15625 -9.09375 C -1.320312 -10.25 -1.457031 -11.867188 -1.5625 -13.953125 C -1.664062 -16.035156 -1.507812 -18.363281 -1.09375 -20.9375 C -0.09375 -26.71875 1.097656 -31.1875 2.484375 -34.34375 C 3.878906 -37.507812 5.628906 -39.238281 7.734375 -39.53125 C 9.304688 -39.75 10.234375 -38.851562 10.515625 -36.84375 C 10.734375 -35.238281 10.664062 -33.5625 10.3125 -31.8125 C 9.957031 -30.070312 9.609375 -28.367188 9.265625 -26.703125 C 8.929688 -25.046875 8.867188 -23.460938 9.078125 -21.953125 C 9.222656 -20.890625 9.550781 -20.082031 10.0625 -19.53125 C 10.570312 -18.988281 11.457031 -18.804688 12.71875 -18.984375 C 14.082031 -19.171875 15.257812 -19.753906 16.25 -20.734375 C 17.25 -21.710938 17.941406 -23.179688 18.328125 -25.140625 L 18.375 -25.453125 C 19.257812 -30.585938 20.328125 -34.578125 21.578125 -37.421875 C 22.835938 -40.265625 24.421875 -41.816406 26.328125 -42.078125 C 27.085938 -42.179688 27.695312 -42.03125 28.15625 -41.625 C 28.625 -41.226562 28.9375 -40.476562 29.09375 -39.375 C 29.28125 -37.96875 29.195312 -36.40625 28.84375 -34.6875 C 28.488281 -32.96875 28.144531 -31.265625 27.8125 -29.578125 C 27.488281 -27.898438 27.410156 -26.429688 27.578125 -25.171875 C 27.773438 -23.765625 28.304688 -22.769531 29.171875 -22.1875 C 30.046875 -21.613281 30.992188 -21.394531 32.015625 -21.53125 C 33.171875 -21.695312 34.082031 -22.195312 34.75 -23.03125 C 35.425781 -23.875 36.066406 -24.898438 36.671875 -26.109375 Z M 36.671875 -26.109375 "/></g></g></g><g fill="#3498DB" fill-opacity="1"><g transform="translate(233.804304, 189.544095)"><g><path d="M 8 -1.09375 C 5.4375 -0.738281 3.351562 -1.53125 1.75 -3.46875 C 0.15625 -5.40625 -0.867188 -8.0625 -1.328125 -11.4375 C -1.617188 -13.550781 -1.660156 -15.835938 -1.453125 -18.296875 C -1.253906 -20.765625 -0.796875 -23.226562 -0.078125 -25.6875 C 0.628906 -28.144531 1.632812 -30.425781 2.9375 -32.53125 C 4.238281 -34.632812 5.84375 -36.390625 7.75 -37.796875 C 9.664062 -39.210938 11.929688 -40.101562 14.546875 -40.46875 C 16.054688 -40.664062 17.242188 -40.679688 18.109375 -40.515625 C 18.984375 -40.359375 19.660156 -40.109375 20.140625 -39.765625 C 20.628906 -39.429688 21.039062 -39.144531 21.375 -38.90625 C 21.71875 -38.675781 22.140625 -38.59375 22.640625 -38.65625 C 23.492188 -38.769531 24.15625 -39.097656 24.625 -39.640625 C 25.09375 -40.191406 25.617188 -40.75 26.203125 -41.3125 C 26.796875 -41.882812 27.671875 -42.253906 28.828125 -42.421875 C 29.835938 -42.554688 30.566406 -42.394531 31.015625 -41.9375 C 31.460938 -41.488281 31.742188 -40.835938 31.859375 -39.984375 C 32.046875 -38.578125 31.847656 -37.125 31.265625 -35.625 C 30.679688 -34.132812 30.109375 -32.226562 29.546875 -29.90625 C 28.660156 -26.957031 28.484375 -24.773438 29.015625 -23.359375 C 29.546875 -21.941406 30.640625 -21.347656 32.296875 -21.578125 C 33.609375 -21.753906 34.691406 -22.25 35.546875 -23.0625 C 36.410156 -23.875 37.144531 -24.9375 37.75 -26.25 C 38.0625 -26.914062 38.539062 -27.203125 39.1875 -27.109375 C 39.84375 -27.015625 40.421875 -26.742188 40.921875 -26.296875 C 41.429688 -25.847656 41.585938 -25.359375 41.390625 -24.828125 C 40.722656 -22.929688 40.019531 -20.84375 39.28125 -18.5625 C 38.539062 -16.289062 37.675781 -14.085938 36.6875 -11.953125 C 35.695312 -9.816406 34.484375 -7.992188 33.046875 -6.484375 C 31.617188 -4.984375 29.84375 -4.085938 27.71875 -3.796875 C 25.101562 -3.429688 23.109375 -4.234375 21.734375 -6.203125 C 20.359375 -8.171875 19.679688 -10.742188 19.703125 -13.921875 L 19.421875 -13.875 C 18.328125 -10.601562 16.816406 -7.742188 14.890625 -5.296875 C 12.972656 -2.859375 10.675781 -1.457031 8 -1.09375 Z M 13.421875 -17.765625 C 14.734375 -17.941406 15.828125 -18.472656 16.703125 -19.359375 C 17.578125 -20.253906 18.21875 -21.28125 18.625 -22.4375 C 19.039062 -23.59375 19.175781 -24.703125 19.03125 -25.765625 C 18.851562 -27.023438 18.363281 -27.957031 17.5625 -28.5625 C 16.757812 -29.175781 15.753906 -29.398438 14.546875 -29.234375 C 13.234375 -29.054688 12.144531 -28.546875 11.28125 -27.703125 C 10.425781 -26.867188 9.804688 -25.875 9.421875 -24.71875 C 9.046875 -23.5625 8.929688 -22.429688 9.078125 -21.328125 C 9.253906 -20.066406 9.734375 -19.117188 10.515625 -18.484375 C 11.296875 -17.847656 12.265625 -17.609375 13.421875 -17.765625 Z M 13.421875 -17.765625 "/></g></g></g><g fill="#3498DB" fill-opacity="1"><g transform="translate(272.631071, 184.232067)"><g><path d="M 37.0625 -26.15625 C 37.300781 -26.644531 37.753906 -26.867188 38.421875 -26.828125 C 39.097656 -26.796875 39.703125 -26.597656 40.234375 -26.234375 C 40.773438 -25.878906 40.929688 -25.378906 40.703125 -24.734375 C 39.921875 -22.265625 39.164062 -19.847656 38.4375 -17.484375 C 37.707031 -15.128906 36.882812 -12.96875 35.96875 -11 C 35.0625 -9.03125 33.976562 -7.40625 32.71875 -6.125 C 31.457031 -4.851562 29.914062 -4.09375 28.09375 -3.84375 C 26.988281 -3.695312 26.035156 -4.128906 25.234375 -5.140625 C 24.328125 0.253906 23.171875 4.640625 21.765625 8.015625 C 20.359375 11.398438 18.617188 13.953125 16.546875 15.671875 C 14.472656 17.390625 12 18.445312 9.125 18.84375 C 5.144531 19.382812 1.921875 18.757812 -0.546875 16.96875 C -3.023438 15.1875 -4.515625 12.476562 -5.015625 8.84375 C -5.273438 6.9375 -5.222656 5.25 -4.859375 3.78125 C -4.492188 2.3125 -4.015625 1.125 -3.421875 0.21875 C -2.835938 -0.675781 -2.285156 -1.273438 -1.765625 -1.578125 C -1.242188 -1.878906 -0.925781 -1.832031 -0.8125 -1.4375 C -0.363281 0.40625 0.679688 1.800781 2.328125 2.75 C 3.984375 3.707031 6.066406 4.039062 8.578125 3.75 C 10.347656 3.5 11.957031 2.835938 13.40625 1.765625 C 14.851562 0.703125 16.097656 -0.601562 17.140625 -2.15625 C 18.179688 -3.707031 18.941406 -5.363281 19.421875 -7.125 C 19.898438 -8.882812 20.023438 -10.59375 19.796875 -12.25 C 19.703125 -12.914062 19.40625 -13.195312 18.90625 -13.09375 C 18.40625 -13 18.035156 -12.550781 17.796875 -11.75 C 17.140625 -8.988281 15.941406 -6.71875 14.203125 -4.9375 C 12.472656 -3.164062 10.65625 -2.148438 8.75 -1.890625 C 6.125 -1.535156 3.898438 -2.21875 2.078125 -3.9375 C 0.253906 -5.664062 -0.847656 -7.941406 -1.234375 -10.765625 C -1.617188 -13.578125 -1.625 -16.597656 -1.25 -19.828125 C -0.875 -23.054688 -0.0546875 -26.15625 1.203125 -29.125 C 2.460938 -32.101562 4.191406 -34.625 6.390625 -36.6875 C 8.597656 -38.757812 11.316406 -40.019531 14.546875 -40.46875 C 16.054688 -40.664062 17.242188 -40.679688 18.109375 -40.515625 C 18.984375 -40.359375 19.660156 -40.109375 20.140625 -39.765625 C 20.628906 -39.429688 21.039062 -39.144531 21.375 -38.90625 C 21.71875 -38.675781 22.140625 -38.59375 22.640625 -38.65625 C 23.492188 -38.769531 24.15625 -39.097656 24.625 -39.640625 C 25.09375 -40.191406 25.617188 -40.75 26.203125 -41.3125 C 26.796875 -41.882812 27.671875 -42.253906 28.828125 -42.421875 C 29.835938 -42.554688 30.566406 -42.394531 31.015625 -41.9375 C 31.460938 -41.488281 31.742188 -40.835938 31.859375 -39.984375 C 31.984375 -39.085938 31.835938 -37.976562 31.421875 -36.65625 C 31.015625 -35.34375 30.476562 -33.65625 29.8125 -31.59375 C 29.144531 -29.53125 28.492188 -26.882812 27.859375 -23.65625 C 27.628906 -21.582031 27.816406 -20.191406 28.421875 -19.484375 C 29.023438 -18.773438 29.757812 -18.476562 30.625 -18.59375 C 31.789062 -18.75 32.925781 -19.617188 34.03125 -21.203125 C 35.144531 -22.796875 36.15625 -24.445312 37.0625 -26.15625 Z M 13.578125 -17.796875 C 14.835938 -17.960938 15.890625 -18.488281 16.734375 -19.375 C 17.585938 -20.257812 18.21875 -21.28125 18.625 -22.4375 C 19.039062 -23.59375 19.175781 -24.703125 19.03125 -25.765625 C 18.875 -26.867188 18.414062 -27.769531 17.65625 -28.46875 C 16.894531 -29.164062 15.78125 -29.410156 14.3125 -29.203125 C 13.101562 -29.046875 12.082031 -28.546875 11.25 -27.703125 C 10.414062 -26.867188 9.804688 -25.875 9.421875 -24.71875 C 9.046875 -23.5625 8.929688 -22.429688 9.078125 -21.328125 C 9.234375 -20.210938 9.664062 -19.296875 10.375 -18.578125 C 11.09375 -17.859375 12.160156 -17.597656 13.578125 -17.796875 Z M 13.578125 -17.796875 "/></g></g></g><g fill="#3498DB" fill-opacity="1"><g transform="translate(310.777982, 179.013052)"><g><path d="M 14.203125 -1.9375 C 11.179688 -1.53125 8.609375 -1.875 6.484375 -2.96875 C 4.359375 -4.070312 2.671875 -5.675781 1.421875 -7.78125 C 0.179688 -9.894531 -0.601562 -12.300781 -0.9375 -15 C -1.28125 -17.695312 -1.179688 -20.453125 -0.640625 -23.265625 C -0.0976562 -26.085938 0.875 -28.734375 2.28125 -31.203125 C 3.6875 -33.679688 5.515625 -35.765625 7.765625 -37.453125 C 10.015625 -39.148438 12.679688 -40.207031 15.765625 -40.625 C 18.117188 -40.945312 20.097656 -40.769531 21.703125 -40.09375 C 23.316406 -39.414062 24.578125 -38.394531 25.484375 -37.03125 C 26.390625 -35.675781 26.957031 -34.164062 27.1875 -32.5 C 27.425781 -30.6875 27.164062 -28.800781 26.40625 -26.84375 C 25.644531 -24.894531 24.441406 -23.207031 22.796875 -21.78125 C 21.148438 -20.351562 19.09375 -19.46875 16.625 -19.125 C 15.570312 -18.988281 14.523438 -18.925781 13.484375 -18.9375 C 12.453125 -18.945312 11.476562 -19.144531 10.5625 -19.53125 C 10.289062 -19.632812 10.007812 -19.601562 9.71875 -19.4375 C 9.4375 -19.28125 9.332031 -18.945312 9.40625 -18.4375 C 9.582031 -17.125 10.484375 -16.234375 12.109375 -15.765625 C 13.734375 -15.304688 15.628906 -15.222656 17.796875 -15.515625 C 20.367188 -15.867188 22.9375 -16.882812 25.5 -18.5625 C 28.070312 -20.25 30.039062 -22.523438 31.40625 -25.390625 C 31.71875 -26.046875 32.210938 -26.328125 32.890625 -26.234375 C 33.566406 -26.148438 34.15625 -25.882812 34.65625 -25.4375 C 35.15625 -24.988281 35.285156 -24.492188 35.046875 -23.953125 C 32.566406 -17.359375 29.566406 -12.191406 26.046875 -8.453125 C 22.535156 -4.710938 18.585938 -2.539062 14.203125 -1.9375 Z M 13.875 -24.53125 C 15.34375 -24.726562 16.425781 -25.347656 17.125 -26.390625 C 17.832031 -27.429688 18.117188 -28.429688 17.984375 -29.390625 C 17.867188 -30.242188 17.476562 -30.929688 16.8125 -31.453125 C 16.144531 -31.984375 15.234375 -32.171875 14.078125 -32.015625 C 12.617188 -31.816406 11.523438 -31.203125 10.796875 -30.171875 C 10.066406 -29.148438 9.769531 -28.140625 9.90625 -27.140625 C 10.019531 -26.335938 10.40625 -25.660156 11.0625 -25.109375 C 11.726562 -24.554688 12.664062 -24.363281 13.875 -24.53125 Z M 13.875 -24.53125 "/></g></g></g><g fill="#3498DB" fill-opacity="1"><g transform="translate(147.340408, 132.695289)"><g><path d="M 10.375 -9.5 L 11.40625 -7.09375 L 1.875 -1.15625 L -0.078125 -4.625 L -6.4375 -14.84375 L -8.609375 -18.015625 L -6.015625 -19.640625 L -4.109375 -16.296875 L 2.25 -6.078125 L 3 -4.921875 Z M 10.375 -9.5 "/></g></g></g><g fill="#3498DB" fill-opacity="1"><g transform="translate(160.315364, 124.491812)"><g><path d="M 8.8125 -2.21875 C 6.457031 -1.507812 4.425781 -1.8125 2.71875 -3.125 C 1.007812 -4.445312 -0.34375 -6.753906 -1.34375 -10.046875 C -2.320312 -13.304688 -2.457031 -15.941406 -1.75 -17.953125 C -1.039062 -19.960938 0.488281 -21.320312 2.84375 -22.03125 C 5.164062 -22.726562 7.179688 -22.4375 8.890625 -21.15625 C 10.609375 -19.875 11.957031 -17.601562 12.9375 -14.34375 C 13.9375 -11.050781 14.078125 -8.378906 13.359375 -6.328125 C 12.648438 -4.285156 11.132812 -2.914062 8.8125 -2.21875 Z M 8.03125 -4.78125 C 9.0625 -5.082031 9.820312 -5.578125 10.3125 -6.265625 C 10.8125 -6.953125 11.054688 -7.878906 11.046875 -9.046875 C 11.035156 -10.210938 10.753906 -11.703125 10.203125 -13.515625 C 9.421875 -16.117188 8.507812 -17.875 7.46875 -18.78125 C 6.4375 -19.695312 5.148438 -19.925781 3.609375 -19.46875 C 2.578125 -19.15625 1.804688 -18.65625 1.296875 -17.96875 C 0.796875 -17.289062 0.554688 -16.375 0.578125 -15.21875 C 0.597656 -14.070312 0.867188 -12.625 1.390625 -10.875 C 1.941406 -9.0625 2.53125 -7.660156 3.15625 -6.671875 C 3.78125 -5.679688 4.488281 -5.035156 5.28125 -4.734375 C 6.070312 -4.441406 6.988281 -4.457031 8.03125 -4.78125 Z M 8.03125 -4.78125 "/></g></g></g><g fill="#3498DB" fill-opacity="1"><g transform="translate(178.563806, 119.182702)"><g><path d="M 16.671875 -0.140625 L 12.640625 -0.109375 L 10.15625 -4.046875 L 8.8125 -5.890625 L 5.0625 -5.859375 L 5.078125 -4.015625 L 5.375 -0.046875 L 2.203125 -0.015625 L 2.34375 -3.984375 L 2.25 -16.015625 L 2.046875 -19.859375 L 9 -19.921875 C 10.914062 -19.929688 12.445312 -19.335938 13.59375 -18.140625 C 14.75 -16.941406 15.332031 -15.222656 15.34375 -12.984375 C 15.363281 -11.390625 15.039062 -10.03125 14.375 -8.90625 C 13.707031 -7.78125 12.804688 -6.957031 11.671875 -6.4375 L 13.40625 -4.078125 Z M 5.046875 -8.453125 L 8.25 -8.46875 C 9.726562 -8.476562 10.804688 -8.84375 11.484375 -9.5625 C 12.171875 -10.28125 12.503906 -11.414062 12.484375 -12.96875 C 12.472656 -14.5 12.128906 -15.609375 11.453125 -16.296875 C 10.773438 -16.984375 9.695312 -17.320312 8.21875 -17.3125 L 4.96875 -17.296875 Z M 5.046875 -8.453125 "/></g></g></g><g fill="#3498DB" fill-opacity="1"><g transform="translate(197.15284, 119.683776)"><g><path d="M 3.125 -3.40625 L 5.546875 -15.1875 L 6.140625 -19 L 9.140625 -18.375 L 8.21875 -14.640625 L 5.796875 -2.859375 L 5.15625 1.0625 L 2.15625 0.4375 Z M 3.125 -3.40625 "/></g></g></g><g fill="#3498DB" fill-opacity="1"><g transform="translate(206.175162, 121.669651)"><g><path d="M 10.8125 -19.671875 C 11.457031 -19.441406 11.90625 -19.070312 12.15625 -18.5625 C 12.40625 -18.050781 12.421875 -17.484375 12.203125 -16.859375 C 11.921875 -16.085938 11.367188 -15.347656 10.546875 -14.640625 C 9.734375 -13.929688 8.898438 -13.488281 8.046875 -13.3125 L 7.53125 -14.234375 L 7.625 -14.328125 C 7.96875 -14.410156 8.328125 -14.632812 8.703125 -15 C 9.078125 -15.363281 9.335938 -15.722656 9.484375 -16.078125 L 9.4375 -16.09375 C 8.851562 -16.300781 8.425781 -16.640625 8.15625 -17.109375 C 7.882812 -17.585938 7.84375 -18.085938 8.03125 -18.609375 C 8.21875 -19.140625 8.570312 -19.503906 9.09375 -19.703125 C 9.613281 -19.898438 10.1875 -19.890625 10.8125 -19.671875 Z M 10.8125 -19.671875 "/></g></g></g><g fill="#3498DB" fill-opacity="1"><g transform="translate(214.393145, 124.262446)"><g><path d="M 6.890625 4.5 C 5.765625 3.820312 4.859375 3.054688 4.171875 2.203125 C 3.492188 1.347656 2.984375 0.3125 2.640625 -0.90625 L 3.6875 -3.40625 L 4.0625 -3.3125 C 4.894531 -0.8125 6.195312 0.96875 7.96875 2.03125 C 9.082031 2.695312 10.078125 3.003906 10.953125 2.953125 C 11.828125 2.910156 12.476562 2.523438 12.90625 1.796875 C 13.207031 1.296875 13.34375 0.820312 13.3125 0.375 C 13.289062 -0.0703125 13.066406 -0.597656 12.640625 -1.203125 C 12.222656 -1.804688 11.535156 -2.59375 10.578125 -3.5625 C 9.128906 -5.082031 8.265625 -6.441406 7.984375 -7.640625 C 7.703125 -8.835938 7.96875 -10.109375 8.78125 -11.453125 C 9.695312 -12.972656 10.910156 -13.878906 12.421875 -14.171875 C 13.941406 -14.472656 15.5625 -14.101562 17.28125 -13.0625 C 18.300781 -12.445312 19.1875 -11.695312 19.9375 -10.8125 C 20.6875 -9.9375 21.191406 -9.050781 21.453125 -8.15625 L 19.765625 -6.140625 L 19.375 -6.265625 C 19.226562 -7.046875 18.859375 -7.84375 18.265625 -8.65625 C 17.671875 -9.476562 16.976562 -10.128906 16.1875 -10.609375 C 15.082031 -11.273438 14.125 -11.570312 13.3125 -11.5 C 12.5 -11.425781 11.851562 -10.992188 11.375 -10.203125 C 11.050781 -9.660156 10.898438 -9.144531 10.921875 -8.65625 C 10.941406 -8.175781 11.140625 -7.648438 11.515625 -7.078125 C 11.890625 -6.503906 12.5 -5.785156 13.34375 -4.921875 C 14.4375 -3.816406 15.222656 -2.832031 15.703125 -1.96875 C 16.179688 -1.113281 16.40625 -0.296875 16.375 0.484375 C 16.34375 1.273438 16.0625 2.109375 15.53125 2.984375 C 14.59375 4.535156 13.347656 5.4375 11.796875 5.6875 C 10.253906 5.9375 8.617188 5.539062 6.890625 4.5 Z M 6.890625 4.5 "/></g></g></g><g fill="#3498DB" fill-opacity="1"><g transform="translate(162.703492, 266.748415)"><g><path d="M 1.53125 0.421875 L 6.265625 -16.921875 L 10.09375 -15.875 L 6.296875 -2 L 12.53125 -0.3125 L 11.59375 3.15625 Z M 1.53125 0.421875 "/></g></g></g><g fill="#3498DB" fill-opacity="1"><g transform="translate(180.091305, 271.175276)"><g><path d="M 11.453125 -6.75 L 9.25 -13.171875 L 6.90625 -6.796875 Z M 18.09375 0.203125 L 13.828125 0.15625 L 12.578125 -3.484375 L 5.734375 -3.5625 L 4.390625 0.046875 L 0.125 0 L 7.640625 -17.90625 L 11 -17.859375 Z M 18.09375 0.203125 "/></g></g></g><g fill="#3498DB" fill-opacity="1"><g transform="translate(203.363217, 270.523294)"><g><path d="M 8.609375 -7.6875 C 8.460938 -8.25 8.125 -8.6875 7.59375 -9 C 7.0625 -9.3125 6.503906 -9.390625 5.921875 -9.234375 L 3.515625 -8.609375 L 4.609375 -4.40625 L 7.015625 -5.03125 C 7.597656 -5.1875 8.046875 -5.519531 8.359375 -6.03125 C 8.679688 -6.550781 8.765625 -7.101562 8.609375 -7.6875 Z M 5.5 -14.640625 C 5.351562 -15.203125 5.03125 -15.625 4.53125 -15.90625 C 4.03125 -16.1875 3.507812 -16.257812 2.96875 -16.125 L 1.640625 -15.78125 L 2.703125 -11.75 L 4.03125 -12.09375 C 4.570312 -12.226562 4.988281 -12.546875 5.28125 -13.046875 C 5.570312 -13.554688 5.644531 -14.085938 5.5 -14.640625 Z M 12.546875 -8.59375 C 12.929688 -7.09375 12.78125 -5.765625 12.09375 -4.609375 C 11.414062 -3.460938 10.242188 -2.671875 8.578125 -2.234375 L 1.546875 -0.40625 L -2.984375 -17.8125 L 3 -19.359375 C 3.988281 -19.617188 4.894531 -19.644531 5.71875 -19.4375 C 6.550781 -19.226562 7.25 -18.847656 7.8125 -18.296875 C 8.382812 -17.753906 8.78125 -17.078125 9 -16.265625 C 9.226562 -15.378906 9.242188 -14.566406 9.046875 -13.828125 C 8.847656 -13.097656 8.457031 -12.507812 7.875 -12.0625 C 8.90625 -12.09375 9.863281 -11.816406 10.75 -11.234375 C 11.632812 -10.660156 12.234375 -9.78125 12.546875 -8.59375 Z M 12.546875 -8.59375 "/></g></g></g></svg>